<?xml version="1.0" encoding="UTF-8" standalone="no"?>
<!DOCTYPE svg PUBLIC "-//W3C//DTD SVG 1.1//EN"
 "http://www.w3.org/Graphics/SVG/1.1/DTD/svg11.dtd">
<!-- Generated by graphviz version 2.40.1 (20161225.0304)
 -->
<!-- Title: dotler Pages: 1 -->
<svg width="3395pt" height="552pt"
 viewBox="0.00 0.00 3394.67 552.00" xmlns="http://www.w3.org/2000/svg" xmlns:xlink="http://www.w3.org/1999/xlink">
<g id="graph0" class="graph" transform="scale(1 1) rotate(0) translate(4 548)">
<title>dotler</title>
<polygon fill="#ffffff" stroke="transparent" points="-4,4 -4,-548 3390.6655,-548 3390.6655,4 -4,4"/>
<!-- http://www.wnohang.net/ -->
<g id="node1" class="node">
<title>http://www.wnohang.net/</title>
<g id="a_node1"><a xlink:href="http://www.wnohang.net/" xlink:title="http://www.wnohang.net/">
<ellipse fill="none" stroke="#000000" cx="1650.4319" cy="-526" rx="106.6812" ry="18"/>
<text text-anchor="middle" x="1650.4319" y="-522.3" font-family="Times,serif" font-size="14.00" fill="#000000">http://www.wnohang.net/</text>
</a>
</g>
</g>
<!-- http://www.wnohang.net/&#45;&gt;http://www.wnohang.net/ -->
<g id="edge6" class="edge">
<title>http://www.wnohang.net/&#45;&gt;http://www.wnohang.net/</title>
<path fill="none" stroke="#000000" d="M1748.1105,-533.2862C1764.0607,-532.2432 1775.0225,-529.8145 1775.0225,-526 1775.0225,-523.0498 1768.4651,-520.9285 1758.114,-519.6361"/>
<polygon fill="#000000" stroke="#000000" points="1758.3897,-516.1468 1748.1105,-518.7138 1757.7469,-523.1172 1758.3897,-516.1468"/>
<text text-anchor="middle" x="1779.0225" y="-522.3" font-family="Times,serif" font-size="14.00" fill="#000000">1</text>
</g>
<!-- http://www.wnohang.net/pages/about -->
<g id="node2" class="node">
<title>http://www.wnohang.net/pages/about</title>
<g id="a_node2"><a xlink:href="http://www.wnohang.net/pages/about" xlink:title="http://www.wnohang.net/pages/about">
<ellipse fill="none" stroke="#000000" cx="1650.4319" cy="-439" rx="150.5735" ry="18"/>
<text text-anchor="middle" x="1650.4319" y="-435.3" font-family="Times,serif" font-size="14.00" fill="#000000">http://www.wnohang.net/pages/about</text>
</a>
</g>
</g>
<!-- http://www.wnohang.net/&#45;&gt;http://www.wnohang.net/pages/about -->
<g id="edge1" class="edge">
<title>http://www.wnohang.net/&#45;&gt;http://www.wnohang.net/pages/about</title>
<path fill="none" stroke="#000000" d="M1650.4319,-507.9735C1650.4319,-496.1918 1650.4319,-480.5607 1650.4319,-467.1581"/>
<polygon fill="#000000" stroke="#000000" points="1653.932,-467.0033 1650.4319,-457.0034 1646.932,-467.0034 1653.932,-467.0033"/>
<text text-anchor="middle" x="1654.4319" y="-478.8" font-family="Times,serif" font-size="14.00" fill="#000000">1</text>
</g>
<!-- http://www.wnohang.net/pages/conferences -->
<g id="node3" class="node">
<title>http://www.wnohang.net/pages/conferences</title>
<g id="a_node3"><a xlink:href="http://www.wnohang.net/pages/conferences" xlink:title="http://www.wnohang.net/pages/conferences">
<ellipse fill="none" stroke="#000000" cx="2177.4319" cy="-352" rx="172.7694" ry="18"/>
<text text-anchor="middle" x="2177.4319" y="-348.3" font-family="Times,serif" font-size="14.00" fill="#000000">http://www.wnohang.net/pages/conferences</text>
</a>
</g>
</g>
<!-- http://www.wnohang.net/&#45;&gt;http://www.wnohang.net/pages/conferences -->
<g id="edge2" class="edge">
<title>http://www.wnohang.net/&#45;&gt;http://www.wnohang.net/pages/conferences</title>
<path fill="none" stroke="#000000" d="M1703.8427,-510.3985C1779.7557,-487.9717 1923.0172,-444.7157 2043.4319,-403 2070.2177,-393.7205 2099.6899,-382.6044 2124.1577,-373.1221"/>
<polygon fill="#000000" stroke="#000000" points="2125.5689,-376.3287 2133.6189,-369.4404 2123.0304,-369.8052 2125.5689,-376.3287"/>
<text text-anchor="middle" x="1994.4319" y="-435.3" font-family="Times,serif" font-size="14.00" fill="#000000">1</text>
</g>
<!-- http://www.wnohang.net/pages/code -->
<g id="node4" class="node">
<title>http://www.wnohang.net/pages/code</title>
<g id="a_node4"><a xlink:href="http://www.wnohang.net/pages/code" xlink:title="http://www.wnohang.net/pages/code">
<ellipse fill="none" stroke="#000000" cx="1736.4319" cy="-265" rx="147.5738" ry="18"/>
<text text-anchor="middle" x="1736.4319" y="-261.3" font-family="Times,serif" font-size="14.00" fill="#000000">http://www.wnohang.net/pages/code</text>
</a>
</g>
</g>
<!-- http://www.wnohang.net/&#45;&gt;http://www.wnohang.net/pages/code -->
<g id="edge3" class="edge">
<title>http://www.wnohang.net/&#45;&gt;http://www.wnohang.net/pages/code</title>
<path fill="none" stroke="#000000" d="M1576.5169,-512.9664C1544.3754,-503.2328 1509.716,-486.3171 1490.4319,-457 1481.6392,-443.6326 1484.043,-435.6691 1490.4319,-421 1521.6996,-349.2094 1551.6297,-340.1715 1619.4319,-301 1630.9433,-294.3496 1643.8148,-288.7997 1656.6946,-284.2097"/>
<polygon fill="#000000" stroke="#000000" points="1658.1722,-287.4048 1666.523,-280.8845 1655.9288,-280.774 1658.1722,-287.4048"/>
<text text-anchor="middle" x="1511.4319" y="-391.8" font-family="Times,serif" font-size="14.00" fill="#000000">1</text>
</g>
<!-- http://www.wnohang.net/pages/contact -->
<g id="node5" class="node">
<title>http://www.wnohang.net/pages/contact</title>
<g id="a_node5"><a xlink:href="http://www.wnohang.net/pages/contact" xlink:title="http://www.wnohang.net/pages/contact">
<ellipse fill="none" stroke="#000000" cx="1654.4319" cy="-178" rx="155.9723" ry="18"/>
<text text-anchor="middle" x="1654.4319" y="-174.3" font-family="Times,serif" font-size="14.00" fill="#000000">http://www.wnohang.net/pages/contact</text>
</a>
</g>
</g>
<!-- http://www.wnohang.net/&#45;&gt;http://www.wnohang.net/pages/contact -->
<g id="edge4" class="edge">
<title>http://www.wnohang.net/&#45;&gt;http://www.wnohang.net/pages/contact</title>
<path fill="none" stroke="#000000" d="M1576.2406,-512.9948C1546.1867,-506.6772 1515.6949,-498.5979 1503.4319,-490 1413.5638,-426.991 1399.9162,-339.2187 1459.4319,-247 1472.3851,-226.9294 1524.5377,-209.0848 1571.6495,-196.573"/>
<polygon fill="#000000" stroke="#000000" points="1572.8117,-199.8874 1581.6103,-193.9852 1571.0515,-193.1123 1572.8117,-199.8874"/>
<text text-anchor="middle" x="1429.4319" y="-348.3" font-family="Times,serif" font-size="14.00" fill="#000000">1</text>
</g>
<!-- http://www.wnohang.net/pages/consult -->
<g id="node6" class="node">
<title>http://www.wnohang.net/pages/consult</title>
<g id="a_node6"><a xlink:href="http://www.wnohang.net/pages/consult" xlink:title="http://www.wnohang.net/pages/consult">
<ellipse fill="none" stroke="#000000" cx="1878.4319" cy="-91" rx="156.7723" ry="18"/>
<text text-anchor="middle" x="1878.4319" y="-87.3" font-family="Times,serif" font-size="14.00" fill="#000000">http://www.wnohang.net/pages/consult</text>
</a>
</g>
</g>
<!-- http://www.wnohang.net/&#45;&gt;http://www.wnohang.net/pages/consult -->
<g id="edge5" class="edge">
<title>http://www.wnohang.net/&#45;&gt;http://www.wnohang.net/pages/consult</title>
<path fill="none" stroke="#000000" d="M1564.2556,-515.2489C1536.6684,-509.8571 1506.5294,-501.8456 1480.4319,-490 1458.1731,-479.8967 1449.8643,-477.4231 1436.4319,-457 1363.62,-346.2934 1383.0955,-266.1285 1462.4319,-160 1477.9326,-139.2647 1486.112,-135.8748 1510.4319,-127 1548.9677,-112.9376 1640.746,-103.9436 1723.0009,-98.4622"/>
<polygon fill="#000000" stroke="#000000" points="1723.2297,-101.9548 1732.9806,-97.8111 1722.7739,-94.9697 1723.2297,-101.9548"/>
<text text-anchor="middle" x="1397.4319" y="-304.8" font-family="Times,serif" font-size="14.00" fill="#000000">1</text>
</g>
<!-- http://www.wnohang.net/stylesheets/styles.css -->
<g id="node7" class="node">
<title>http://www.wnohang.net/stylesheets/styles.css</title>
<g id="a_node7"><a xlink:href="styles.css" xlink:title="http://www.wnohang.net/stylesheets/styles.css">
<ellipse fill="none" stroke="#000000" stroke-dasharray="5,2" cx="1643.4319" cy="-18" rx="181.168" ry="18"/>
<text text-anchor="middle" x="1643.4319" y="-14.3" font-family="Times,serif" font-size="14.00" fill="#000000">http://www.wnohang.net/stylesheets/styles.css</text>
</a>
</g>
</g>
<!-- http://www.wnohang.net/&#45;&gt;http://www.wnohang.net/stylesheets/styles.css -->
<g id="edge7" class="edge">
<title>http://www.wnohang.net/&#45;&gt;http://www.wnohang.net/stylesheets/styles.css</title>
<path fill="none" stroke="#0000ff" stroke-dasharray="5,2" d="M1547.6656,-521.1943C1440.6425,-513.3026 1288.4319,-492.6485 1288.4319,-439 1288.4319,-439 1288.4319,-439 1288.4319,-91 1288.4319,-67.2514 1411.8973,-46.125 1513.2038,-32.7875"/>
<polygon fill="#0000ff" stroke="#0000ff" points="1513.7803,-36.2421 1523.2451,-31.4812 1512.8772,-29.3006 1513.7803,-36.2421"/>
</g>
<!-- http://www.wnohang.net/stylesheets/pygment_trac.css -->
<g id="node8" class="node">
<title>http://www.wnohang.net/stylesheets/pygment_trac.css</title>
<g id="a_node8"><a xlink:href="pygment_trac.css" xlink:title="http://www.wnohang.net/stylesheets/pygment_trac.css">
<ellipse fill="none" stroke="#000000" stroke-dasharray="5,2" cx="2153.4319" cy="-18" rx="211.7625" ry="18"/>
<text text-anchor="middle" x="2153.4319" y="-14.3" font-family="Times,serif" font-size="14.00" fill="#000000">http://www.wnohang.net/stylesheets/pygment_trac.css</text>
</a>
</g>
</g>
<!-- http://www.wnohang.net/&#45;&gt;http://www.wnohang.net/stylesheets/pygment_trac.css -->
<g id="edge8" class="edge">
<title>http://www.wnohang.net/&#45;&gt;http://www.wnohang.net/stylesheets/pygment_trac.css</title>
<path fill="none" stroke="#0000ff" stroke-dasharray="5,2" d="M1752.2062,-520.5319C1973.8402,-507.9476 2480.4319,-475.2217 2480.4319,-439 2480.4319,-439 2480.4319,-439 2480.4319,-91 2480.4319,-78.667 2422.5498,-55.2708 2418.4319,-54 2386.5325,-44.1556 2351.6471,-37.0012 2317.9695,-31.8024"/>
<polygon fill="#0000ff" stroke="#0000ff" points="2318.4428,-28.3343 2308.0356,-30.3193 2317.4091,-35.2576 2318.4428,-28.3343"/>
</g>
<!-- https://ajax.googleapis.com/ajax/libs/jquery/1.7.1/jquery.min.js -->
<g id="node9" class="node">
<title>https://ajax.googleapis.com/ajax/libs/jquery/1.7.1/jquery.min.js</title>
<g id="a_node9"><a xlink:href="jquery.min.js" xlink:title="https://ajax.googleapis.com/ajax/libs/jquery/1.7.1/jquery.min.js">
<ellipse fill="none" stroke="#000000" stroke-dasharray="5,2" cx="2753.4319" cy="-439" rx="245.0565" ry="18"/>
<text text-anchor="middle" x="2753.4319" y="-435.3" font-family="Times,serif" font-size="14.00" fill="#000000">https://ajax.googleapis.com/ajax/libs/jquery/1.7.1/jquery.min.js</text>
</a>
</g>
</g>
<!-- http://www.wnohang.net/&#45;&gt;https://ajax.googleapis.com/ajax/libs/jquery/1.7.1/jquery.min.js -->
<g id="edge9" class="edge">
<title>http://www.wnohang.net/&#45;&gt;https://ajax.googleapis.com/ajax/libs/jquery/1.7.1/jquery.min.js</title>
<path fill="none" stroke="#0000ff" stroke-dasharray="5,2" d="M1756.0932,-523.4966C1949.7786,-518.5744 2354.6252,-506.6488 2494.4319,-490 2554.1601,-482.8873 2620.7234,-469.6622 2671.4132,-458.462"/>
<polygon fill="#0000ff" stroke="#0000ff" points="2672.3336,-461.8428 2681.3328,-456.2513 2670.8109,-455.0104 2672.3336,-461.8428"/>
</g>
<!-- http://www.wnohang.net/javascripts/respond.js -->
<g id="node10" class="node">
<title>http://www.wnohang.net/javascripts/respond.js</title>
<g id="a_node10"><a xlink:href="respond.js" xlink:title="http://www.wnohang.net/javascripts/respond.js">
<ellipse fill="none" stroke="#000000" stroke-dasharray="5,2" cx="3201.4319" cy="-439" rx="185.4674" ry="18"/>
<text text-anchor="middle" x="3201.4319" y="-435.3" font-family="Times,serif" font-size="14.00" fill="#000000">http://www.wnohang.net/javascripts/respond.js</text>
</a>
</g>
</g>
<!-- http://www.wnohang.net/&#45;&gt;http://www.wnohang.net/javascripts/respond.js -->
<g id="edge10" class="edge">
<title>http://www.wnohang.net/&#45;&gt;http://www.wnohang.net/javascripts/respond.js</title>
<path fill="none" stroke="#0000ff" stroke-dasharray="5,2" d="M1755.6874,-522.9446C1924.4926,-517.7896 2266.1723,-506.308 2555.4319,-490 2756.5362,-478.6621 2806.6968,-473.6386 3007.4319,-457 3024.1281,-455.6161 3041.6255,-454.0939 3058.9892,-452.5387"/>
<polygon fill="#0000ff" stroke="#0000ff" points="3059.5445,-456.003 3069.1902,-451.6201 3058.9165,-449.0312 3059.5445,-456.003"/>
</g>
<!-- http://www.wnohang.net/pages/about&#45;&gt;http://www.wnohang.net/pages/about -->
<g id="edge13" class="edge">
<title>http://www.wnohang.net/pages/about&#45;&gt;http://www.wnohang.net/pages/about</title>
<path fill="none" stroke="#000000" d="M1789.809,-445.8799C1807.5323,-444.6771 1819.2186,-442.3838 1819.2186,-439 1819.2186,-436.3035 1811.7977,-434.2996 1799.8145,-432.988"/>
<polygon fill="#000000" stroke="#000000" points="1800.0741,-429.4975 1789.809,-432.1201 1799.469,-436.4713 1800.0741,-429.4975"/>
<text text-anchor="middle" x="1823.2186" y="-435.3" font-family="Times,serif" font-size="14.00" fill="#000000">2</text>
</g>
<!-- http://www.wnohang.net/pages/about&#45;&gt;http://www.wnohang.net/pages/conferences -->
<g id="edge14" class="edge">
<title>http://www.wnohang.net/pages/about&#45;&gt;http://www.wnohang.net/pages/conferences</title>
<path fill="none" stroke="#000000" d="M1738.937,-424.3891C1831.7651,-409.0645 1977.4757,-385.0099 2075.1622,-368.8832"/>
<polygon fill="#000000" stroke="#000000" points="2075.7565,-372.3326 2085.0528,-367.2504 2074.6163,-365.4261 2075.7565,-372.3326"/>
<text text-anchor="middle" x="1950.4319" y="-391.8" font-family="Times,serif" font-size="14.00" fill="#000000">2</text>
</g>
<!-- http://www.wnohang.net/pages/about&#45;&gt;http://www.wnohang.net/pages/code -->
<g id="edge15" class="edge">
<title>http://www.wnohang.net/pages/about&#45;&gt;http://www.wnohang.net/pages/code</title>
<path fill="none" stroke="#000000" d="M1640.1301,-420.9412C1633.0262,-407.4036 1624.209,-388.16 1620.4319,-370 1614.0216,-339.1792 1613.0251,-322.0507 1636.4319,-301 1643.3336,-294.7931 1651.3842,-289.6355 1659.8657,-285.3544"/>
<polygon fill="#000000" stroke="#000000" points="1661.5909,-288.413 1669.2041,-281.0448 1658.6578,-282.0571 1661.5909,-288.413"/>
<text text-anchor="middle" x="1624.4319" y="-348.3" font-family="Times,serif" font-size="14.00" fill="#000000">1</text>
</g>
<!-- http://www.wnohang.net/pages/about&#45;&gt;http://www.wnohang.net/pages/contact -->
<g id="edge11" class="edge">
<title>http://www.wnohang.net/pages/about&#45;&gt;http://www.wnohang.net/pages/contact</title>
<path fill="none" stroke="#000000" d="M1586.6199,-422.6334C1568.6953,-416.8294 1552.4392,-409.993 1546.4319,-403 1516.5308,-368.192 1526.2648,-346.6981 1530.4319,-301 1534.0023,-261.8473 1520.6426,-243.6747 1546.4319,-214 1551.5102,-208.1567 1563.5941,-202.5184 1577.9204,-197.5069"/>
<polygon fill="#000000" stroke="#000000" points="1579.2092,-200.7673 1587.6076,-194.3083 1577.0144,-194.1203 1579.2092,-200.7673"/>
<text text-anchor="middle" x="1534.4319" y="-304.8" font-family="Times,serif" font-size="14.00" fill="#000000">2</text>
</g>
<!-- http://www.wnohang.net/pages/about&#45;&gt;http://www.wnohang.net/pages/consult -->
<g id="edge12" class="edge">
<title>http://www.wnohang.net/pages/about&#45;&gt;http://www.wnohang.net/pages/consult</title>
<path fill="none" stroke="#000000" d="M1775.9879,-428.9946C1982.8393,-412.2655 2373.757,-379.5122 2385.4319,-370 2407.6105,-351.9299 2404.4319,-337.108 2404.4319,-308.5 2404.4319,-308.5 2404.4319,-308.5 2404.4319,-178 2404.4319,-139.2241 2179.0586,-113.9349 2023.3588,-101.0906"/>
<polygon fill="#000000" stroke="#000000" points="2023.4584,-97.5872 2013.207,-100.2626 2022.8893,-104.564 2023.4584,-97.5872"/>
<text text-anchor="middle" x="2408.4319" y="-261.3" font-family="Times,serif" font-size="14.00" fill="#000000">1</text>
</g>
<!-- http://www.wnohang.net/pages/about&#45;&gt;http://www.wnohang.net/stylesheets/styles.css -->
<g id="edge18" class="edge">
<title>http://www.wnohang.net/pages/about&#45;&gt;http://www.wnohang.net/stylesheets/styles.css</title>
<path fill="none" stroke="#0000ff" stroke-dasharray="5,2" d="M1526.5546,-428.6813C1435.0881,-417.5185 1326.4319,-395.1723 1326.4319,-352 1326.4319,-352 1326.4319,-352 1326.4319,-91 1326.4319,-69.7365 1436.1439,-48.2267 1526.4811,-34.1195"/>
<polygon fill="#0000ff" stroke="#0000ff" points="1527.2033,-37.5495 1536.5521,-32.5646 1526.1352,-30.6315 1527.2033,-37.5495"/>
</g>
<!-- http://www.wnohang.net/pages/about&#45;&gt;http://www.wnohang.net/stylesheets/pygment_trac.css -->
<g id="edge16" class="edge">
<title>http://www.wnohang.net/pages/about&#45;&gt;http://www.wnohang.net/stylesheets/pygment_trac.css</title>
<path fill="none" stroke="#0000ff" stroke-dasharray="5,2" d="M1774.647,-428.7485C1808.3147,-426.0914 1844.7617,-423.3257 1878.4319,-421 1941.4158,-416.6496 2442.4319,-415.1339 2442.4319,-352 2442.4319,-352 2442.4319,-352 2442.4319,-91 2442.4319,-60.4819 2381.0869,-42.5892 2314.9231,-32.1662"/>
<polygon fill="#0000ff" stroke="#0000ff" points="2315.1144,-28.6554 2304.7032,-30.6194 2314.0668,-35.5766 2315.1144,-28.6554"/>
</g>
<!-- http://www.wnohang.net/pages/me.jpg -->
<g id="node11" class="node">
<title>http://www.wnohang.net/pages/me.jpg</title>
<g id="a_node11"><a xlink:href="me.jpg" xlink:title="http://www.wnohang.net/pages/me.jpg">
<ellipse fill="none" stroke="#000000" stroke-dasharray="5,2" cx="1831.4319" cy="-352" rx="155.1726" ry="18"/>
<text text-anchor="middle" x="1831.4319" y="-348.3" font-family="Times,serif" font-size="14.00" fill="#000000">http://www.wnohang.net/pages/me.jpg</text>
</a>
</g>
</g>
<!-- http://www.wnohang.net/pages/about&#45;&gt;http://www.wnohang.net/pages/me.jpg -->
<g id="edge17" class="edge">
<title>http://www.wnohang.net/pages/about&#45;&gt;http://www.wnohang.net/pages/me.jpg</title>
<path fill="none" stroke="#0000ff" stroke-dasharray="5,2" d="M1687.06,-421.3943C1715.5187,-407.7152 1755.1519,-388.665 1785.6941,-373.9845"/>
<polygon fill="#0000ff" stroke="#0000ff" points="1787.3617,-377.0663 1794.8584,-369.5796 1784.3292,-370.7573 1787.3617,-377.0663"/>
</g>
<!-- http://www.wnohang.net/pages/conferences&#45;&gt;http://www.wnohang.net/pages/about -->
<g id="edge27" class="edge">
<title>http://www.wnohang.net/pages/conferences&#45;&gt;http://www.wnohang.net/pages/about</title>
<path fill="none" stroke="#000000" d="M2113.6161,-368.8615C2070.1351,-379.8557 2011.1198,-393.8159 1958.4319,-403 1900.5144,-413.0957 1835.9636,-421.129 1780.9778,-427.0224"/>
<polygon fill="#000000" stroke="#000000" points="1780.4014,-423.5638 1770.8258,-428.0979 1781.139,-430.5248 1780.4014,-423.5638"/>
<text text-anchor="middle" x="2035.4319" y="-391.8" font-family="Times,serif" font-size="14.00" fill="#000000">1</text>
</g>
<!-- http://www.wnohang.net/pages/conferences&#45;&gt;http://www.wnohang.net/pages/conferences -->
<g id="edge26" class="edge">
<title>http://www.wnohang.net/pages/conferences&#45;&gt;http://www.wnohang.net/pages/conferences</title>
<path fill="none" stroke="#000000" d="M2337.9232,-358.6973C2356.3509,-357.4522 2368.3166,-355.2197 2368.3166,-352 2368.3166,-349.4091 2360.5685,-347.4576 2347.9401,-346.1453"/>
<polygon fill="#000000" stroke="#000000" points="2348.1814,-342.6533 2337.9232,-345.3027 2347.5946,-349.6287 2348.1814,-342.6533"/>
<text text-anchor="middle" x="2372.3166" y="-348.3" font-family="Times,serif" font-size="14.00" fill="#000000">2</text>
</g>
<!-- http://www.wnohang.net/pages/conferences&#45;&gt;http://www.wnohang.net/pages/code -->
<g id="edge28" class="edge">
<title>http://www.wnohang.net/pages/conferences&#45;&gt;http://www.wnohang.net/pages/code</title>
<path fill="none" stroke="#000000" d="M2054.2181,-339.3322C1965.7949,-330.0954 1860.5082,-318.7362 1850.4319,-316 1825.4611,-309.2191 1798.9976,-297.6773 1777.8597,-287.2869"/>
<polygon fill="#000000" stroke="#000000" points="1779.3558,-284.1217 1768.8476,-282.7689 1776.2186,-290.3794 1779.3558,-284.1217"/>
<text text-anchor="middle" x="1854.4319" y="-304.8" font-family="Times,serif" font-size="14.00" fill="#000000">1</text>
</g>
<!-- http://www.wnohang.net/pages/conferences&#45;&gt;http://www.wnohang.net/pages/contact -->
<g id="edge29" class="edge">
<title>http://www.wnohang.net/pages/conferences&#45;&gt;http://www.wnohang.net/pages/contact</title>
<path fill="none" stroke="#000000" d="M2063.4107,-338.4506C2026.9509,-332.6519 1992.0044,-325.0988 1976.4319,-316 1942.0876,-295.9329 1952.9732,-268.3824 1919.4319,-247 1876.021,-219.3256 1821.9187,-202.7177 1773.9378,-192.7657"/>
<polygon fill="#000000" stroke="#000000" points="1774.6057,-189.33 1764.1137,-190.8021 1773.2337,-196.1943 1774.6057,-189.33"/>
<text text-anchor="middle" x="1952.4319" y="-261.3" font-family="Times,serif" font-size="14.00" fill="#000000">2</text>
</g>
<!-- http://www.wnohang.net/pages/conferences&#45;&gt;http://www.wnohang.net/pages/consult -->
<g id="edge30" class="edge">
<title>http://www.wnohang.net/pages/conferences&#45;&gt;http://www.wnohang.net/pages/consult</title>
<path fill="none" stroke="#000000" d="M2092.3224,-336.2337C2077.5845,-331.2252 2062.984,-324.6432 2050.4319,-316 2047.7346,-314.1426 1911.4809,-129.5549 1909.4319,-127 1906.7616,-123.6702 1903.9041,-120.2155 1901.0442,-116.8225"/>
<polygon fill="#000000" stroke="#000000" points="1903.6094,-114.4368 1894.4537,-109.1053 1898.2863,-118.9826 1903.6094,-114.4368"/>
<text text-anchor="middle" x="1989.4319" y="-217.8" font-family="Times,serif" font-size="14.00" fill="#000000">1</text>
</g>
<!-- http://www.wnohang.net/pages/conferences&#45;&gt;http://www.wnohang.net/stylesheets/styles.css -->
<g id="edge31" class="edge">
<title>http://www.wnohang.net/pages/conferences&#45;&gt;http://www.wnohang.net/stylesheets/styles.css</title>
<path fill="none" stroke="#0000ff" stroke-dasharray="5,2" d="M2173.0656,-333.9202C2159.0956,-277.6174 2113.8629,-107.1505 2070.4319,-73 2048.7411,-55.9441 1909.9977,-40.2646 1796.4575,-30.0487"/>
<polygon fill="#0000ff" stroke="#0000ff" points="1796.5213,-26.5406 1786.25,-29.1388 1795.8997,-33.513 1796.5213,-26.5406"/>
</g>
<!-- http://www.wnohang.net/pages/conferences&#45;&gt;http://www.wnohang.net/stylesheets/pygment_trac.css -->
<g id="edge32" class="edge">
<title>http://www.wnohang.net/pages/conferences&#45;&gt;http://www.wnohang.net/stylesheets/pygment_trac.css</title>
<path fill="none" stroke="#0000ff" stroke-dasharray="5,2" d="M2177.7649,-333.6701C2178.0558,-316.0641 2178.4319,-288.7151 2178.4319,-265 2178.4319,-265 2178.4319,-265 2178.4319,-91 2178.4319,-75.2615 2173.1667,-58.594 2167.4689,-45.1648"/>
<polygon fill="#0000ff" stroke="#0000ff" points="2170.6361,-43.6744 2163.3126,-36.0182 2164.2632,-46.5703 2170.6361,-43.6744"/>
</g>
<!-- http://www.wnohang.net/pages/code&#45;&gt;http://www.wnohang.net/pages/about -->
<g id="edge20" class="edge">
<title>http://www.wnohang.net/pages/code&#45;&gt;http://www.wnohang.net/pages/about</title>
<path fill="none" stroke="#000000" d="M1707.5685,-282.6853C1690.4578,-294.8485 1670.0909,-312.638 1659.4319,-334 1647.498,-357.9173 1646.2539,-388.7322 1647.3853,-410.7828"/>
<polygon fill="#000000" stroke="#000000" points="1643.8993,-411.1064 1648.0951,-420.835 1650.8819,-410.6133 1643.8993,-411.1064"/>
<text text-anchor="middle" x="1663.4319" y="-348.3" font-family="Times,serif" font-size="14.00" fill="#000000">1</text>
</g>
<!-- http://www.wnohang.net/pages/code&#45;&gt;http://www.wnohang.net/pages/conferences -->
<g id="edge21" class="edge">
<title>http://www.wnohang.net/pages/code&#45;&gt;http://www.wnohang.net/pages/conferences</title>
<path fill="none" stroke="#000000" d="M1791.1179,-281.7563C1828.402,-292.7048 1879.0531,-306.6536 1924.4319,-316 1965.5795,-324.4749 2010.9023,-331.6057 2051.6817,-337.2272"/>
<polygon fill="#000000" stroke="#000000" points="2051.2905,-340.7062 2061.6712,-338.5869 2052.2346,-333.7701 2051.2905,-340.7062"/>
<text text-anchor="middle" x="1928.4319" y="-304.8" font-family="Times,serif" font-size="14.00" fill="#000000">1</text>
</g>
<!-- http://www.wnohang.net/pages/code&#45;&gt;http://www.wnohang.net/pages/code -->
<g id="edge19" class="edge">
<title>http://www.wnohang.net/pages/code&#45;&gt;http://www.wnohang.net/pages/code</title>
<path fill="none" stroke="#000000" d="M1872.8088,-271.9017C1890.3683,-270.7049 1901.9689,-268.4043 1901.9689,-265 1901.9689,-262.3138 1894.7461,-260.3148 1883.0723,-259.003"/>
<polygon fill="#000000" stroke="#000000" points="1883.0775,-255.49 1872.8088,-258.0983 1882.4628,-262.463 1883.0775,-255.49"/>
<text text-anchor="middle" x="1905.9689" y="-261.3" font-family="Times,serif" font-size="14.00" fill="#000000">2</text>
</g>
<!-- http://www.wnohang.net/pages/code&#45;&gt;http://www.wnohang.net/pages/contact -->
<g id="edge22" class="edge">
<title>http://www.wnohang.net/pages/code&#45;&gt;http://www.wnohang.net/pages/contact</title>
<path fill="none" stroke="#000000" d="M1719.4415,-246.9735C1707.5672,-234.3752 1691.5445,-217.3755 1678.3774,-203.4055"/>
<polygon fill="#000000" stroke="#000000" points="1680.8065,-200.8799 1671.4006,-196.0034 1675.7125,-205.6811 1680.8065,-200.8799"/>
<text text-anchor="middle" x="1704.4319" y="-217.8" font-family="Times,serif" font-size="14.00" fill="#000000">1</text>
</g>
<!-- http://www.wnohang.net/pages/code&#45;&gt;http://www.wnohang.net/pages/consult -->
<g id="edge23" class="edge">
<title>http://www.wnohang.net/pages/code&#45;&gt;http://www.wnohang.net/pages/consult</title>
<path fill="none" stroke="#000000" d="M1833.6436,-251.3383C1857.7532,-245.8841 1878.8877,-238.5691 1886.4319,-229 1910.9942,-197.8453 1900.4982,-149.3817 1889.9795,-118.955"/>
<polygon fill="#000000" stroke="#000000" points="1893.1954,-117.5589 1886.4621,-109.3789 1886.6247,-119.9725 1893.1954,-117.5589"/>
<text text-anchor="middle" x="1906.4319" y="-174.3" font-family="Times,serif" font-size="14.00" fill="#000000">1</text>
</g>
<!-- http://www.wnohang.net/pages/code&#45;&gt;http://www.wnohang.net/stylesheets/styles.css -->
<g id="edge24" class="edge">
<title>http://www.wnohang.net/pages/code&#45;&gt;http://www.wnohang.net/stylesheets/styles.css</title>
<path fill="none" stroke="#0000ff" stroke-dasharray="5,2" d="M1643.4982,-250.9359C1581.6698,-239.4613 1508.4418,-221.0481 1489.4319,-196 1445.1393,-137.6384 1538.4304,-73.7134 1598.3115,-40.6457"/>
<polygon fill="#0000ff" stroke="#0000ff" points="1600.123,-43.6449 1607.2461,-35.802 1596.7868,-37.4911 1600.123,-43.6449"/>
</g>
<!-- http://www.wnohang.net/pages/code&#45;&gt;http://www.wnohang.net/stylesheets/pygment_trac.css -->
<g id="edge25" class="edge">
<title>http://www.wnohang.net/pages/code&#45;&gt;http://www.wnohang.net/stylesheets/pygment_trac.css</title>
<path fill="none" stroke="#0000ff" stroke-dasharray="5,2" d="M1848.4199,-253.2282C1935.4909,-243.8832 2042.2435,-231.9183 2046.4319,-229 2109.4293,-185.1063 2137.4777,-92.8052 2148.0263,-46.1992"/>
<polygon fill="#0000ff" stroke="#0000ff" points="2151.4993,-46.6968 2150.1811,-36.1843 2144.6559,-45.2244 2151.4993,-46.6968"/>
</g>
<!-- http://www.wnohang.net/pages/contact&#45;&gt;http://www.wnohang.net/pages/about -->
<g id="edge34" class="edge">
<title>http://www.wnohang.net/pages/contact&#45;&gt;http://www.wnohang.net/pages/about</title>
<path fill="none" stroke="#000000" d="M1625.2947,-195.8305C1608.4636,-207.9371 1588.8167,-225.6138 1579.4319,-247 1553.874,-305.2421 1598.749,-375.8855 1628.0707,-413.1274"/>
<polygon fill="#000000" stroke="#000000" points="1625.4121,-415.406 1634.4195,-420.9843 1630.8567,-411.0064 1625.4121,-415.406"/>
<text text-anchor="middle" x="1580.4319" y="-304.8" font-family="Times,serif" font-size="14.00" fill="#000000">1</text>
</g>
<!-- http://www.wnohang.net/pages/contact&#45;&gt;http://www.wnohang.net/pages/conferences -->
<g id="edge35" class="edge">
<title>http://www.wnohang.net/pages/contact&#45;&gt;http://www.wnohang.net/pages/conferences</title>
<path fill="none" stroke="#000000" d="M1768.108,-190.3915C1804.993,-195.8818 1845.828,-203.5369 1882.4319,-214 1918.624,-224.3453 1930.7557,-223.8438 1960.4319,-247 1990.7062,-270.6229 1980.1007,-295.2814 2012.4319,-316 2023.322,-322.9786 2046.3041,-329.423 2071.75,-334.8724"/>
<polygon fill="#000000" stroke="#000000" points="2071.1011,-338.3123 2081.6029,-336.9113 2072.5196,-331.4575 2071.1011,-338.3123"/>
<text text-anchor="middle" x="1990.4319" y="-261.3" font-family="Times,serif" font-size="14.00" fill="#000000">1</text>
</g>
<!-- http://www.wnohang.net/pages/contact&#45;&gt;http://www.wnohang.net/pages/code -->
<g id="edge36" class="edge">
<title>http://www.wnohang.net/pages/contact&#45;&gt;http://www.wnohang.net/pages/code</title>
<path fill="none" stroke="#000000" d="M1660.6077,-196.4562C1664.7496,-206.8583 1670.9996,-219.6083 1679.4319,-229 1683.4895,-233.5192 1688.244,-237.6854 1693.2463,-241.4561"/>
<polygon fill="#000000" stroke="#000000" points="1691.6118,-244.5826 1701.8194,-247.4209 1695.6097,-238.8366 1691.6118,-244.5826"/>
<text text-anchor="middle" x="1683.4319" y="-217.8" font-family="Times,serif" font-size="14.00" fill="#000000">1</text>
</g>
<!-- http://www.wnohang.net/pages/contact&#45;&gt;http://www.wnohang.net/pages/contact -->
<g id="edge33" class="edge">
<title>http://www.wnohang.net/pages/contact&#45;&gt;http://www.wnohang.net/pages/contact</title>
<path fill="none" stroke="#000000" d="M1798.7641,-184.8357C1816.6621,-183.6213 1828.4181,-181.3428 1828.4181,-178 1828.4181,-175.3362 1820.9529,-173.3482 1808.8634,-172.036"/>
<polygon fill="#000000" stroke="#000000" points="1809.0281,-168.5373 1798.7641,-171.1643 1808.4261,-175.5114 1809.0281,-168.5373"/>
<text text-anchor="middle" x="1832.4181" y="-174.3" font-family="Times,serif" font-size="14.00" fill="#000000">2</text>
</g>
<!-- http://www.wnohang.net/pages/contact&#45;&gt;http://www.wnohang.net/pages/consult -->
<g id="edge37" class="edge">
<title>http://www.wnohang.net/pages/contact&#45;&gt;http://www.wnohang.net/pages/consult</title>
<path fill="none" stroke="#000000" d="M1723.3215,-161.7944C1743.0324,-156.3508 1764.3407,-149.6788 1783.4319,-142 1802.7747,-134.22 1823.2682,-123.5565 1840.2501,-113.9909"/>
<polygon fill="#000000" stroke="#000000" points="1842.3531,-116.8201 1849.2936,-108.815 1838.8759,-110.7447 1842.3531,-116.8201"/>
<text text-anchor="middle" x="1820.4319" y="-130.8" font-family="Times,serif" font-size="14.00" fill="#000000">1</text>
</g>
<!-- http://www.wnohang.net/pages/contact&#45;&gt;http://www.wnohang.net/stylesheets/styles.css -->
<g id="edge39" class="edge">
<title>http://www.wnohang.net/pages/contact&#45;&gt;http://www.wnohang.net/stylesheets/styles.css</title>
<path fill="none" stroke="#0000ff" stroke-dasharray="5,2" d="M1653.1915,-159.957C1651.2934,-132.3487 1647.6515,-79.3746 1645.3931,-46.5255"/>
<polygon fill="#0000ff" stroke="#0000ff" points="1648.8625,-45.9589 1644.6848,-36.2226 1641.879,-46.4391 1648.8625,-45.9589"/>
</g>
<!-- http://www.wnohang.net/pages/contact&#45;&gt;http://www.wnohang.net/stylesheets/pygment_trac.css -->
<g id="edge40" class="edge">
<title>http://www.wnohang.net/pages/contact&#45;&gt;http://www.wnohang.net/stylesheets/pygment_trac.css</title>
<path fill="none" stroke="#0000ff" stroke-dasharray="5,2" d="M1662.0416,-159.8612C1673.7946,-132.7474 1696.6525,-83.6822 1712.4319,-73 1735.5577,-57.3446 1873.5774,-41.8055 1989.1384,-31.2585"/>
<polygon fill="#0000ff" stroke="#0000ff" points="1989.5384,-34.7367 1999.1821,-30.3491 1988.9072,-27.7652 1989.5384,-34.7367"/>
</g>
<!-- http://www.wnohang.net/pages/Yelp -->
<g id="node12" class="node">
<title>http://www.wnohang.net/pages/Yelp</title>
<g id="a_node12"><a xlink:href="http://www.wnohang.net/pages/Yelp" xlink:title="http://www.wnohang.net/pages/Yelp">
<ellipse fill="none" stroke="#000000" cx="896.4319" cy="-91" rx="146.774" ry="18"/>
<text text-anchor="middle" x="896.4319" y="-87.3" font-family="Times,serif" font-size="14.00" fill="#000000">http://www.wnohang.net/pages/Yelp</text>
</a>
</g>
</g>
<!-- http://www.wnohang.net/pages/contact&#45;&gt;http://www.wnohang.net/pages/Yelp -->
<g id="edge38" class="edge">
<title>http://www.wnohang.net/pages/contact&#45;&gt;http://www.wnohang.net/pages/Yelp</title>
<path fill="none" stroke="#000000" d="M1543.8066,-165.3029C1402.4559,-149.0793 1158.8166,-121.1154 1014.1425,-104.5103"/>
<polygon fill="#000000" stroke="#000000" points="1014.2337,-100.9979 1003.8998,-103.3347 1013.4354,-107.9522 1014.2337,-100.9979"/>
<text text-anchor="middle" x="1325.4319" y="-130.8" font-family="Times,serif" font-size="14.00" fill="#000000">1</text>
</g>
<!-- http://www.wnohang.net/pages/consult&#45;&gt;http://www.wnohang.net/pages/about -->
<g id="edge44" class="edge">
<title>http://www.wnohang.net/pages/consult&#45;&gt;http://www.wnohang.net/pages/about</title>
<path fill="none" stroke="#000000" d="M1733.0393,-97.7643C1635.9589,-105.6826 1520.5778,-122.8434 1489.4319,-160 1418.9752,-244.054 1454.9509,-325.3731 1532.4319,-403 1538.5664,-409.146 1552.6532,-415.0103 1569.0392,-420.1548"/>
<polygon fill="#000000" stroke="#000000" points="1568.3268,-423.5946 1578.91,-423.0973 1570.3266,-416.8863 1568.3268,-423.5946"/>
<text text-anchor="middle" x="1459.4319" y="-261.3" font-family="Times,serif" font-size="14.00" fill="#000000">1</text>
</g>
<!-- http://www.wnohang.net/pages/consult&#45;&gt;http://www.wnohang.net/pages/conferences -->
<g id="edge45" class="edge">
<title>http://www.wnohang.net/pages/consult&#45;&gt;http://www.wnohang.net/pages/conferences</title>
<path fill="none" stroke="#000000" d="M1905.1985,-108.7667C1913.1799,-114.3619 1921.8235,-120.7247 1929.4319,-127 2023.036,-204.2027 2032.8279,-238.7973 2126.4319,-316 2131.3701,-320.0729 2136.7443,-324.1827 2142.0906,-328.0955"/>
<polygon fill="#000000" stroke="#000000" points="2140.2342,-331.0711 2150.402,-334.0486 2144.3103,-325.3802 2140.2342,-331.0711"/>
<text text-anchor="middle" x="2038.4319" y="-217.8" font-family="Times,serif" font-size="14.00" fill="#000000">1</text>
</g>
<!-- http://www.wnohang.net/pages/consult&#45;&gt;http://www.wnohang.net/pages/code -->
<g id="edge41" class="edge">
<title>http://www.wnohang.net/pages/consult&#45;&gt;http://www.wnohang.net/pages/code</title>
<path fill="none" stroke="#000000" d="M1876.5753,-109.0802C1873.4755,-131.5028 1865.4652,-169.9451 1845.4319,-196 1830.151,-215.8741 1807.394,-231.5602 1786.6201,-242.9211"/>
<polygon fill="#000000" stroke="#000000" points="1784.7845,-239.9317 1777.5585,-247.6801 1788.0392,-246.1291 1784.7845,-239.9317"/>
<text text-anchor="middle" x="1868.4319" y="-174.3" font-family="Times,serif" font-size="14.00" fill="#000000">1</text>
</g>
<!-- http://www.wnohang.net/pages/consult&#45;&gt;http://www.wnohang.net/pages/contact -->
<g id="edge42" class="edge">
<title>http://www.wnohang.net/pages/consult&#45;&gt;http://www.wnohang.net/pages/contact</title>
<path fill="none" stroke="#000000" d="M1826.3507,-108.0001C1809.3804,-113.7671 1790.5162,-120.4209 1773.4319,-127 1749.8615,-136.0769 1724.055,-147.0117 1702.517,-156.4245"/>
<polygon fill="#000000" stroke="#000000" points="1701.0047,-153.2659 1693.2567,-160.4923 1703.82,-159.6749 1701.0047,-153.2659"/>
<text text-anchor="middle" x="1777.4319" y="-130.8" font-family="Times,serif" font-size="14.00" fill="#000000">1</text>
</g>
<!-- http://www.wnohang.net/pages/consult&#45;&gt;http://www.wnohang.net/pages/consult -->
<g id="edge43" class="edge">
<title>http://www.wnohang.net/pages/consult&#45;&gt;http://www.wnohang.net/pages/consult</title>
<path fill="none" stroke="#000000" d="M2027.4811,-96.5927C2043.0753,-95.501 2053.0681,-93.6367 2053.0681,-91 2053.0681,-88.9813 2047.2105,-87.4153 2037.4662,-86.3022"/>
<polygon fill="#000000" stroke="#000000" points="2037.7537,-82.814 2027.4811,-85.4073 2037.1287,-89.7861 2037.7537,-82.814"/>
<text text-anchor="middle" x="2057.0681" y="-87.3" font-family="Times,serif" font-size="14.00" fill="#000000">2</text>
</g>
<!-- http://www.wnohang.net/pages/consult&#45;&gt;http://www.wnohang.net/stylesheets/styles.css -->
<g id="edge46" class="edge">
<title>http://www.wnohang.net/pages/consult&#45;&gt;http://www.wnohang.net/stylesheets/styles.css</title>
<path fill="none" stroke="#0000ff" stroke-dasharray="5,2" d="M1823.9276,-74.0688C1789.5971,-63.4045 1745.0804,-49.5759 1708.8477,-38.3206"/>
<polygon fill="#0000ff" stroke="#0000ff" points="1709.4514,-34.8433 1698.8633,-35.2191 1707.3748,-41.5282 1709.4514,-34.8433"/>
</g>
<!-- http://www.wnohang.net/pages/consult&#45;&gt;http://www.wnohang.net/stylesheets/pygment_trac.css -->
<g id="edge47" class="edge">
<title>http://www.wnohang.net/pages/consult&#45;&gt;http://www.wnohang.net/stylesheets/pygment_trac.css</title>
<path fill="none" stroke="#0000ff" stroke-dasharray="5,2" d="M1940.8337,-74.4352C1981.7047,-63.5858 2035.3454,-49.3466 2078.52,-37.8857"/>
<polygon fill="#0000ff" stroke="#0000ff" points="2079.6405,-41.2096 2088.4078,-35.261 2077.8445,-34.4439 2079.6405,-41.2096"/>
</g>
<!-- http://www.wnohang.net/pages/Yelp&#45;&gt;http://www.wnohang.net/pages/Yelp -->
<g id="edge48" class="edge">
<title>http://www.wnohang.net/pages/Yelp&#45;&gt;http://www.wnohang.net/pages/Yelp</title>
<path fill="none" stroke="#000000" d="M1035.9713,-96.6784C1051.3741,-95.5998 1061.3189,-93.707 1061.3189,-91 1061.3189,-88.9486 1055.6078,-87.3647 1046.1382,-86.2485"/>
<polygon fill="#000000" stroke="#000000" points="1046.2478,-82.7441 1035.9713,-85.3216 1045.6122,-89.7152 1046.2478,-82.7441"/>
<text text-anchor="middle" x="1065.3189" y="-87.3" font-family="Times,serif" font-size="14.00" fill="#000000">1</text>
</g>
<!-- http://www.wnohang.net/cdn&#45;cgi/se/themes/mountain&#45;view/styles.css -->
<g id="node13" class="node">
<title>http://www.wnohang.net/cdn&#45;cgi/se/themes/mountain&#45;view/styles.css</title>
<g id="a_node13"><a xlink:href="styles.css" xlink:title="http://www.wnohang.net/cdn&#45;cgi/se/themes/mountain&#45;view/styles.css">
<ellipse fill="none" stroke="#000000" stroke-dasharray="5,2" cx="692.4319" cy="-18" rx="267.2527" ry="18"/>
<text text-anchor="middle" x="692.4319" y="-14.3" font-family="Times,serif" font-size="14.00" fill="#000000">http://www.wnohang.net/cdn&#45;cgi/se/themes/mountain&#45;view/styles.css</text>
</a>
</g>
</g>
<!-- http://www.wnohang.net/pages/Yelp&#45;&gt;http://www.wnohang.net/cdn&#45;cgi/se/themes/mountain&#45;view/styles.css -->
<g id="edge49" class="edge">
<title>http://www.wnohang.net/pages/Yelp&#45;&gt;http://www.wnohang.net/cdn&#45;cgi/se/themes/mountain&#45;view/styles.css</title>
<path fill="none" stroke="#0000ff" stroke-dasharray="5,2" d="M848.603,-73.8847C819.6988,-63.5416 782.6188,-50.2727 751.8435,-39.26"/>
<polygon fill="#0000ff" stroke="#0000ff" points="752.686,-35.8442 742.0914,-35.7703 750.3275,-42.4349 752.686,-35.8442"/>
</g>
<!-- http://www.wnohang.net/cdn&#45;cgi/se/javascripts/modernizr.js -->
<g id="node14" class="node">
<title>http://www.wnohang.net/cdn&#45;cgi/se/javascripts/modernizr.js</title>
<g id="a_node14"><a xlink:href="modernizr.js" xlink:title="http://www.wnohang.net/cdn&#45;cgi/se/javascripts/modernizr.js">
<ellipse fill="none" stroke="#000000" stroke-dasharray="5,2" cx="1210.4319" cy="-18" rx="233.1587" ry="18"/>
<text text-anchor="middle" x="1210.4319" y="-14.3" font-family="Times,serif" font-size="14.00" fill="#000000">http://www.wnohang.net/cdn&#45;cgi/se/javascripts/modernizr.js</text>
</a>
</g>
</g>
<!-- http://www.wnohang.net/pages/Yelp&#45;&gt;http://www.wnohang.net/cdn&#45;cgi/se/javascripts/modernizr.js -->
<g id="edge50" class="edge">
<title>http://www.wnohang.net/pages/Yelp&#45;&gt;http://www.wnohang.net/cdn&#45;cgi/se/javascripts/modernizr.js</title>
<path fill="none" stroke="#0000ff" stroke-dasharray="5,2" d="M964.9526,-75.07C1012.5748,-63.9986 1076.3231,-49.1782 1126.9211,-37.4149"/>
<polygon fill="#0000ff" stroke="#0000ff" points="1127.909,-40.7787 1136.8567,-35.1051 1126.3238,-33.9605 1127.909,-40.7787"/>
</g>
<!-- http://www.wnohang.net/cdn&#45;cgi/se/themes/core.css -->
<g id="node15" class="node">
<title>http://www.wnohang.net/cdn&#45;cgi/se/themes/core.css</title>
<g id="a_node15"><a xlink:href="core.css" xlink:title="http://www.wnohang.net/cdn&#45;cgi/se/themes/core.css">
<ellipse fill="none" stroke="#000000" stroke-dasharray="5,2" cx="203.4319" cy="-18" rx="203.3639" ry="18"/>
<text text-anchor="middle" x="203.4319" y="-14.3" font-family="Times,serif" font-size="14.00" fill="#000000">http://www.wnohang.net/cdn&#45;cgi/se/themes/core.css</text>
</a>
</g>
</g>
<!-- http://www.wnohang.net/pages/Yelp&#45;&gt;http://www.wnohang.net/cdn&#45;cgi/se/themes/core.css -->
<g id="edge51" class="edge">
<title>http://www.wnohang.net/pages/Yelp&#45;&gt;http://www.wnohang.net/cdn&#45;cgi/se/themes/core.css</title>
<path fill="none" stroke="#0000ff" stroke-dasharray="5,2" d="M784.7047,-79.2307C664.9328,-66.6141 474.5046,-46.5546 344.4854,-32.8584"/>
<polygon fill="#0000ff" stroke="#0000ff" points="344.7606,-29.3682 334.4489,-31.8012 344.0272,-36.3296 344.7606,-29.3682"/>
</g>
</g>
</svg>
