<?xml version="1.0" encoding="UTF-8" standalone="no"?>
<!DOCTYPE svg PUBLIC "-//W3C//DTD SVG 1.1//EN"
 "http://www.w3.org/Graphics/SVG/1.1/DTD/svg11.dtd">
<!-- Generated by graphviz version 2.40.1 (20161225.0304)
 -->
<!-- Title: dotler Pages: 1 -->
<svg width="3411pt" height="552pt"
 viewBox="0.00 0.00 3411.36 552.00" xmlns="http://www.w3.org/2000/svg" xmlns:xlink="http://www.w3.org/1999/xlink">
<g id="graph0" class="graph" transform="scale(1 1) rotate(0) translate(4 548)">
<title>dotler</title>
<polygon fill="#ffffff" stroke="transparent" points="-4,4 -4,-548 3407.3599,-548 3407.3599,4 -4,4"/>
<!-- http://www.wnohang.net/ -->
<g id="node1" class="node">
<title>http://www.wnohang.net/</title>
<g id="a_node1"><a xlink:href="http://www.wnohang.net/" xlink:title="http://www.wnohang.net/">
<ellipse fill="none" stroke="#000000" cx="1667.1263" cy="-526" rx="106.6812" ry="18"/>
<text text-anchor="middle" x="1667.1263" y="-522.3" font-family="Times,serif" font-size="14.00" fill="#000000">http://www.wnohang.net/</text>
</a>
</g>
</g>
<!-- http://www.wnohang.net/&#45;&gt;http://www.wnohang.net/ -->
<g id="edge6" class="edge">
<title>http://www.wnohang.net/&#45;&gt;http://www.wnohang.net/</title>
<path fill="none" stroke="#000000" d="M1764.8049,-533.2862C1780.7551,-532.2432 1791.7168,-529.8145 1791.7168,-526 1791.7168,-523.0498 1785.1595,-520.9285 1774.8084,-519.6361"/>
<polygon fill="#000000" stroke="#000000" points="1775.084,-516.1468 1764.8049,-518.7138 1774.4413,-523.1172 1775.084,-516.1468"/>
<text text-anchor="middle" x="1795.7168" y="-522.3" font-family="Times,serif" font-size="14.00" fill="#000000">1</text>
</g>
<!-- http://www.wnohang.net/pages/about -->
<g id="node2" class="node">
<title>http://www.wnohang.net/pages/about</title>
<g id="a_node2"><a xlink:href="http://www.wnohang.net/pages/about" xlink:title="http://www.wnohang.net/pages/about">
<ellipse fill="none" stroke="#000000" cx="1667.1263" cy="-439" rx="150.5735" ry="18"/>
<text text-anchor="middle" x="1667.1263" y="-435.3" font-family="Times,serif" font-size="14.00" fill="#000000">http://www.wnohang.net/pages/about</text>
</a>
</g>
</g>
<!-- http://www.wnohang.net/&#45;&gt;http://www.wnohang.net/pages/about -->
<g id="edge1" class="edge">
<title>http://www.wnohang.net/&#45;&gt;http://www.wnohang.net/pages/about</title>
<path fill="none" stroke="#000000" d="M1667.1263,-507.9735C1667.1263,-496.1918 1667.1263,-480.5607 1667.1263,-467.1581"/>
<polygon fill="#000000" stroke="#000000" points="1670.6264,-467.0033 1667.1263,-457.0034 1663.6264,-467.0034 1670.6264,-467.0033"/>
<text text-anchor="middle" x="1671.1263" y="-478.8" font-family="Times,serif" font-size="14.00" fill="#000000">1</text>
</g>
<!-- http://www.wnohang.net/pages/conferences -->
<g id="node3" class="node">
<title>http://www.wnohang.net/pages/conferences</title>
<g id="a_node3"><a xlink:href="http://www.wnohang.net/pages/conferences" xlink:title="http://www.wnohang.net/pages/conferences">
<ellipse fill="none" stroke="#000000" cx="2194.1263" cy="-352" rx="172.7694" ry="18"/>
<text text-anchor="middle" x="2194.1263" y="-348.3" font-family="Times,serif" font-size="14.00" fill="#000000">http://www.wnohang.net/pages/conferences</text>
</a>
</g>
</g>
<!-- http://www.wnohang.net/&#45;&gt;http://www.wnohang.net/pages/conferences -->
<g id="edge2" class="edge">
<title>http://www.wnohang.net/&#45;&gt;http://www.wnohang.net/pages/conferences</title>
<path fill="none" stroke="#000000" d="M1718.8432,-510.2156C1793.0993,-487.3944 1934.0975,-443.4741 2053.1263,-403 2081.2081,-393.4512 2112.2249,-382.2991 2138.0009,-372.8627"/>
<polygon fill="#000000" stroke="#000000" points="2139.4247,-376.0685 2147.6062,-369.337 2137.0126,-369.4972 2139.4247,-376.0685"/>
<text text-anchor="middle" x="1999.1263" y="-435.3" font-family="Times,serif" font-size="14.00" fill="#000000">1</text>
</g>
<!-- http://www.wnohang.net/pages/code -->
<g id="node4" class="node">
<title>http://www.wnohang.net/pages/code</title>
<g id="a_node4"><a xlink:href="http://www.wnohang.net/pages/code" xlink:title="http://www.wnohang.net/pages/code">
<ellipse fill="none" stroke="#000000" cx="1753.1263" cy="-265" rx="147.5738" ry="18"/>
<text text-anchor="middle" x="1753.1263" y="-261.3" font-family="Times,serif" font-size="14.00" fill="#000000">http://www.wnohang.net/pages/code</text>
</a>
</g>
</g>
<!-- http://www.wnohang.net/&#45;&gt;http://www.wnohang.net/pages/code -->
<g id="edge3" class="edge">
<title>http://www.wnohang.net/&#45;&gt;http://www.wnohang.net/pages/code</title>
<path fill="none" stroke="#000000" d="M1593.2112,-512.9664C1561.0698,-503.2328 1526.4104,-486.3171 1507.1263,-457 1498.3335,-443.6326 1500.7373,-435.6691 1507.1263,-421 1538.3939,-349.2094 1568.324,-340.1715 1636.1263,-301 1647.6376,-294.3496 1660.5092,-288.7997 1673.389,-284.2097"/>
<polygon fill="#000000" stroke="#000000" points="1674.8666,-287.4048 1683.2174,-280.8845 1672.6231,-280.774 1674.8666,-287.4048"/>
<text text-anchor="middle" x="1528.1263" y="-391.8" font-family="Times,serif" font-size="14.00" fill="#000000">1</text>
</g>
<!-- http://www.wnohang.net/pages/contact -->
<g id="node5" class="node">
<title>http://www.wnohang.net/pages/contact</title>
<g id="a_node5"><a xlink:href="http://www.wnohang.net/pages/contact" xlink:title="http://www.wnohang.net/pages/contact">
<ellipse fill="none" stroke="#000000" cx="1660.1263" cy="-178" rx="155.9723" ry="18"/>
<text text-anchor="middle" x="1660.1263" y="-174.3" font-family="Times,serif" font-size="14.00" fill="#000000">http://www.wnohang.net/pages/contact</text>
</a>
</g>
</g>
<!-- http://www.wnohang.net/&#45;&gt;http://www.wnohang.net/pages/contact -->
<g id="edge4" class="edge">
<title>http://www.wnohang.net/&#45;&gt;http://www.wnohang.net/pages/contact</title>
<path fill="none" stroke="#000000" d="M1592.9349,-512.9948C1562.8811,-506.6772 1532.3892,-498.5979 1520.1263,-490 1430.2582,-426.991 1416.6106,-339.2187 1476.1263,-247 1488.4926,-227.8386 1538.1237,-209.8726 1582.7257,-197.0792"/>
<polygon fill="#000000" stroke="#000000" points="1583.7653,-200.4227 1592.4458,-194.3482 1581.8718,-193.6837 1583.7653,-200.4227"/>
<text text-anchor="middle" x="1446.1263" y="-348.3" font-family="Times,serif" font-size="14.00" fill="#000000">1</text>
</g>
<!-- http://www.wnohang.net/pages/consult -->
<g id="node6" class="node">
<title>http://www.wnohang.net/pages/consult</title>
<g id="a_node6"><a xlink:href="http://www.wnohang.net/pages/consult" xlink:title="http://www.wnohang.net/pages/consult">
<ellipse fill="none" stroke="#000000" cx="1878.1263" cy="-91" rx="156.7723" ry="18"/>
<text text-anchor="middle" x="1878.1263" y="-87.3" font-family="Times,serif" font-size="14.00" fill="#000000">http://www.wnohang.net/pages/consult</text>
</a>
</g>
</g>
<!-- http://www.wnohang.net/&#45;&gt;http://www.wnohang.net/pages/consult -->
<g id="edge5" class="edge">
<title>http://www.wnohang.net/&#45;&gt;http://www.wnohang.net/pages/consult</title>
<path fill="none" stroke="#000000" d="M1580.9499,-515.2489C1553.3628,-509.8571 1523.2237,-501.8456 1497.1263,-490 1474.8675,-479.8967 1466.5586,-477.4231 1453.1263,-457 1380.4993,-346.5746 1392.8552,-268.6403 1468.1263,-160 1482.8701,-138.7199 1491.8135,-135.8943 1516.1263,-127 1553.7383,-113.2405 1642.9304,-104.2787 1723.3645,-98.7379"/>
<polygon fill="#000000" stroke="#000000" points="1723.8903,-102.2105 1733.6322,-98.0456 1723.4194,-95.2263 1723.8903,-102.2105"/>
<text text-anchor="middle" x="1410.1263" y="-304.8" font-family="Times,serif" font-size="14.00" fill="#000000">1</text>
</g>
<!-- http://www.wnohang.net/stylesheets/styles.css -->
<g id="node7" class="node">
<title>http://www.wnohang.net/stylesheets/styles.css</title>
<g id="a_node7"><a xlink:href="styles.css" xlink:title="http://www.wnohang.net/stylesheets/styles.css">
<ellipse fill="none" stroke="#000000" stroke-dasharray="5,2" cx="1643.1263" cy="-18" rx="181.168" ry="18"/>
<text text-anchor="middle" x="1643.1263" y="-14.3" font-family="Times,serif" font-size="14.00" fill="#000000">http://www.wnohang.net/stylesheets/styles.css</text>
</a>
</g>
</g>
<!-- http://www.wnohang.net/&#45;&gt;http://www.wnohang.net/stylesheets/styles.css -->
<g id="edge7" class="edge">
<title>http://www.wnohang.net/&#45;&gt;http://www.wnohang.net/stylesheets/styles.css</title>
<path fill="none" stroke="#0000ff" stroke-dasharray="5,2" d="M1564.3599,-521.1943C1457.3369,-513.3026 1305.1263,-492.6485 1305.1263,-439 1305.1263,-439 1305.1263,-439 1305.1263,-91 1305.1263,-68.3872 1422.2052,-47.1055 1518.5502,-33.4209"/>
<polygon fill="#0000ff" stroke="#0000ff" points="1519.2786,-36.853 1528.6949,-31.9968 1518.3054,-29.921 1519.2786,-36.853"/>
</g>
<!-- http://www.wnohang.net/stylesheets/pygment_trac.css -->
<g id="node8" class="node">
<title>http://www.wnohang.net/stylesheets/pygment_trac.css</title>
<g id="a_node8"><a xlink:href="pygment_trac.css" xlink:title="http://www.wnohang.net/stylesheets/pygment_trac.css">
<ellipse fill="none" stroke="#000000" stroke-dasharray="5,2" cx="2162.1263" cy="-18" rx="211.7625" ry="18"/>
<text text-anchor="middle" x="2162.1263" y="-14.3" font-family="Times,serif" font-size="14.00" fill="#000000">http://www.wnohang.net/stylesheets/pygment_trac.css</text>
</a>
</g>
</g>
<!-- http://www.wnohang.net/&#45;&gt;http://www.wnohang.net/stylesheets/pygment_trac.css -->
<g id="edge8" class="edge">
<title>http://www.wnohang.net/&#45;&gt;http://www.wnohang.net/stylesheets/pygment_trac.css</title>
<path fill="none" stroke="#0000ff" stroke-dasharray="5,2" d="M1768.9006,-520.5319C1990.5345,-507.9476 2497.1263,-475.2217 2497.1263,-439 2497.1263,-439 2497.1263,-439 2497.1263,-91 2497.1263,-80.1676 2440.393,-55.0389 2437.1263,-54 2413.0899,-46.3562 2362.6704,-38.9395 2311.4874,-32.8442"/>
<polygon fill="#0000ff" stroke="#0000ff" points="2311.588,-29.3321 2301.2483,-31.6431 2310.7724,-36.2844 2311.588,-29.3321"/>
</g>
<!-- https://ajax.googleapis.com/ajax/libs/jquery/1.7.1/jquery.min.js -->
<g id="node9" class="node">
<title>https://ajax.googleapis.com/ajax/libs/jquery/1.7.1/jquery.min.js</title>
<g id="a_node9"><a xlink:href="jquery.min.js" xlink:title="https://ajax.googleapis.com/ajax/libs/jquery/1.7.1/jquery.min.js">
<ellipse fill="none" stroke="#000000" stroke-dasharray="5,2" cx="2770.1263" cy="-439" rx="245.0565" ry="18"/>
<text text-anchor="middle" x="2770.1263" y="-435.3" font-family="Times,serif" font-size="14.00" fill="#000000">https://ajax.googleapis.com/ajax/libs/jquery/1.7.1/jquery.min.js</text>
</a>
</g>
</g>
<!-- http://www.wnohang.net/&#45;&gt;https://ajax.googleapis.com/ajax/libs/jquery/1.7.1/jquery.min.js -->
<g id="edge9" class="edge">
<title>http://www.wnohang.net/&#45;&gt;https://ajax.googleapis.com/ajax/libs/jquery/1.7.1/jquery.min.js</title>
<path fill="none" stroke="#0000ff" stroke-dasharray="5,2" d="M1772.7875,-523.4966C1966.4729,-518.5744 2371.3195,-506.6488 2511.1263,-490 2570.8545,-482.8873 2637.4178,-469.6622 2688.1076,-458.462"/>
<polygon fill="#0000ff" stroke="#0000ff" points="2689.028,-461.8428 2698.0272,-456.2513 2687.5053,-455.0104 2689.028,-461.8428"/>
</g>
<!-- http://www.wnohang.net/javascripts/respond.js -->
<g id="node10" class="node">
<title>http://www.wnohang.net/javascripts/respond.js</title>
<g id="a_node10"><a xlink:href="respond.js" xlink:title="http://www.wnohang.net/javascripts/respond.js">
<ellipse fill="none" stroke="#000000" stroke-dasharray="5,2" cx="3218.1263" cy="-439" rx="185.4674" ry="18"/>
<text text-anchor="middle" x="3218.1263" y="-435.3" font-family="Times,serif" font-size="14.00" fill="#000000">http://www.wnohang.net/javascripts/respond.js</text>
</a>
</g>
</g>
<!-- http://www.wnohang.net/&#45;&gt;http://www.wnohang.net/javascripts/respond.js -->
<g id="edge10" class="edge">
<title>http://www.wnohang.net/&#45;&gt;http://www.wnohang.net/javascripts/respond.js</title>
<path fill="none" stroke="#0000ff" stroke-dasharray="5,2" d="M1772.3818,-522.9446C1941.187,-517.7896 2282.8667,-506.308 2572.1263,-490 2773.2305,-478.6621 2823.3911,-473.6386 3024.1263,-457 3040.8224,-455.6161 3058.3199,-454.0939 3075.6836,-452.5387"/>
<polygon fill="#0000ff" stroke="#0000ff" points="3076.2388,-456.003 3085.8845,-451.6201 3075.6109,-449.0312 3076.2388,-456.003"/>
</g>
<!-- http://www.wnohang.net/pages/about&#45;&gt;http://www.wnohang.net/pages/about -->
<g id="edge28" class="edge">
<title>http://www.wnohang.net/pages/about&#45;&gt;http://www.wnohang.net/pages/about</title>
<path fill="none" stroke="#000000" d="M1806.5033,-445.8799C1824.2267,-444.6771 1835.9129,-442.3838 1835.9129,-439 1835.9129,-436.3035 1828.492,-434.2996 1816.5089,-432.988"/>
<polygon fill="#000000" stroke="#000000" points="1816.7684,-429.4975 1806.5033,-432.1201 1816.1634,-436.4713 1816.7684,-429.4975"/>
<text text-anchor="middle" x="1839.9129" y="-435.3" font-family="Times,serif" font-size="14.00" fill="#000000">2</text>
</g>
<!-- http://www.wnohang.net/pages/about&#45;&gt;http://www.wnohang.net/pages/conferences -->
<g id="edge29" class="edge">
<title>http://www.wnohang.net/pages/about&#45;&gt;http://www.wnohang.net/pages/conferences</title>
<path fill="none" stroke="#000000" d="M1748.9838,-423.8486C1806.3445,-413.3798 1884.8328,-399.3516 1954.1263,-388 1996.0908,-381.1254 2042.2703,-374.0758 2082.8186,-368.0578"/>
<polygon fill="#000000" stroke="#000000" points="2083.3485,-371.5176 2092.7282,-366.5909 2082.3234,-364.593 2083.3485,-371.5176"/>
<text text-anchor="middle" x="1958.1263" y="-391.8" font-family="Times,serif" font-size="14.00" fill="#000000">2</text>
</g>
<!-- http://www.wnohang.net/pages/about&#45;&gt;http://www.wnohang.net/pages/code -->
<g id="edge25" class="edge">
<title>http://www.wnohang.net/pages/about&#45;&gt;http://www.wnohang.net/pages/code</title>
<path fill="none" stroke="#000000" d="M1656.8244,-420.9412C1649.7206,-407.4036 1640.9034,-388.16 1637.1263,-370 1630.716,-339.1792 1629.7194,-322.0507 1653.1263,-301 1660.0279,-294.7931 1668.0785,-289.6355 1676.56,-285.3544"/>
<polygon fill="#000000" stroke="#000000" points="1678.2853,-288.413 1685.8985,-281.0448 1675.3521,-282.0571 1678.2853,-288.413"/>
<text text-anchor="middle" x="1641.1263" y="-348.3" font-family="Times,serif" font-size="14.00" fill="#000000">1</text>
</g>
<!-- http://www.wnohang.net/pages/about&#45;&gt;http://www.wnohang.net/pages/contact -->
<g id="edge26" class="edge">
<title>http://www.wnohang.net/pages/about&#45;&gt;http://www.wnohang.net/pages/contact</title>
<path fill="none" stroke="#000000" d="M1603.3143,-422.6334C1585.3896,-416.8294 1569.1335,-409.993 1563.1263,-403 1537.5079,-373.1776 1550.6966,-355.1527 1547.1263,-316 1542.9591,-270.3019 1533.6121,-249.1368 1563.1263,-214 1567.9715,-208.2318 1573.8323,-203.3874 1580.246,-199.3189"/>
<polygon fill="#000000" stroke="#000000" points="1582.2867,-202.187 1589.2912,-194.2379 1578.8585,-196.0839 1582.2867,-202.187"/>
<text text-anchor="middle" x="1551.1263" y="-304.8" font-family="Times,serif" font-size="14.00" fill="#000000">2</text>
</g>
<!-- http://www.wnohang.net/pages/about&#45;&gt;http://www.wnohang.net/pages/consult -->
<g id="edge27" class="edge">
<title>http://www.wnohang.net/pages/about&#45;&gt;http://www.wnohang.net/pages/consult</title>
<path fill="none" stroke="#000000" d="M1789.3673,-428.3844C1996.8534,-410.2492 2396.2416,-374.7853 2402.1263,-370 2424.3222,-351.9511 2421.1263,-337.108 2421.1263,-308.5 2421.1263,-308.5 2421.1263,-308.5 2421.1263,-178 2421.1263,-137.8177 2186.2997,-112.8604 2025.4989,-100.481"/>
<polygon fill="#000000" stroke="#000000" points="2025.7358,-96.989 2015.499,-99.72 2025.2045,-103.9688 2025.7358,-96.989"/>
<text text-anchor="middle" x="2425.1263" y="-261.3" font-family="Times,serif" font-size="14.00" fill="#000000">1</text>
</g>
<!-- http://www.wnohang.net/pages/about&#45;&gt;http://www.wnohang.net/stylesheets/styles.css -->
<g id="edge32" class="edge">
<title>http://www.wnohang.net/pages/about&#45;&gt;http://www.wnohang.net/stylesheets/styles.css</title>
<path fill="none" stroke="#0000ff" stroke-dasharray="5,2" d="M1543.2489,-428.6813C1451.7825,-417.5185 1343.1263,-395.1723 1343.1263,-352 1343.1263,-352 1343.1263,-352 1343.1263,-91 1343.1263,-70.8265 1446.8654,-49.1357 1532.3371,-34.688"/>
<polygon fill="#0000ff" stroke="#0000ff" points="1533.11,-38.1074 1542.3961,-33.0065 1531.9558,-31.2032 1533.11,-38.1074"/>
</g>
<!-- http://www.wnohang.net/pages/about&#45;&gt;http://www.wnohang.net/stylesheets/pygment_trac.css -->
<g id="edge30" class="edge">
<title>http://www.wnohang.net/pages/about&#45;&gt;http://www.wnohang.net/stylesheets/pygment_trac.css</title>
<path fill="none" stroke="#0000ff" stroke-dasharray="5,2" d="M1789.5972,-428.4842C1820.7454,-425.9207 1854.1637,-423.2662 1885.1263,-421 1949.1918,-416.3109 2459.1263,-416.2369 2459.1263,-352 2459.1263,-352 2459.1263,-352 2459.1263,-91 2459.1263,-59.8127 2396.5874,-41.8762 2328.905,-31.5965"/>
<polygon fill="#0000ff" stroke="#0000ff" points="2329.2893,-28.1156 2318.8886,-30.1348 2328.2783,-35.0422 2329.2893,-28.1156"/>
</g>
<!-- http://www.wnohang.net/pages/me.jpg -->
<g id="node11" class="node">
<title>http://www.wnohang.net/pages/me.jpg</title>
<g id="a_node11"><a xlink:href="me.jpg" xlink:title="http://www.wnohang.net/pages/me.jpg">
<ellipse fill="none" stroke="#000000" stroke-dasharray="5,2" cx="1848.1263" cy="-352" rx="155.1726" ry="18"/>
<text text-anchor="middle" x="1848.1263" y="-348.3" font-family="Times,serif" font-size="14.00" fill="#000000">http://www.wnohang.net/pages/me.jpg</text>
</a>
</g>
</g>
<!-- http://www.wnohang.net/pages/about&#45;&gt;http://www.wnohang.net/pages/me.jpg -->
<g id="edge31" class="edge">
<title>http://www.wnohang.net/pages/about&#45;&gt;http://www.wnohang.net/pages/me.jpg</title>
<path fill="none" stroke="#0000ff" stroke-dasharray="5,2" d="M1703.7543,-421.3943C1732.213,-407.7152 1771.8462,-388.665 1802.3884,-373.9845"/>
<polygon fill="#0000ff" stroke="#0000ff" points="1804.0561,-377.0663 1811.5527,-369.5796 1801.0235,-370.7573 1804.0561,-377.0663"/>
</g>
<!-- http://www.wnohang.net/pages/conferences&#45;&gt;http://www.wnohang.net/pages/about -->
<g id="edge13" class="edge">
<title>http://www.wnohang.net/pages/conferences&#45;&gt;http://www.wnohang.net/pages/about</title>
<path fill="none" stroke="#000000" d="M2127.0384,-368.6906C2081.3444,-379.6106 2019.3577,-393.5524 1964.1263,-403 1908.4546,-412.523 1846.4903,-420.4513 1793.6242,-426.4214"/>
<polygon fill="#000000" stroke="#000000" points="1793.0693,-422.9616 1783.5202,-427.5512 1793.8472,-429.9182 1793.0693,-422.9616"/>
<text text-anchor="middle" x="2045.1263" y="-391.8" font-family="Times,serif" font-size="14.00" fill="#000000">1</text>
</g>
<!-- http://www.wnohang.net/pages/conferences&#45;&gt;http://www.wnohang.net/pages/conferences -->
<g id="edge12" class="edge">
<title>http://www.wnohang.net/pages/conferences&#45;&gt;http://www.wnohang.net/pages/conferences</title>
<path fill="none" stroke="#000000" d="M2354.6175,-358.6973C2373.0452,-357.4522 2385.011,-355.2197 2385.011,-352 2385.011,-349.4091 2377.2629,-347.4576 2364.6345,-346.1453"/>
<polygon fill="#000000" stroke="#000000" points="2364.8757,-342.6533 2354.6175,-345.3027 2364.289,-349.6287 2364.8757,-342.6533"/>
<text text-anchor="middle" x="2389.011" y="-348.3" font-family="Times,serif" font-size="14.00" fill="#000000">2</text>
</g>
<!-- http://www.wnohang.net/pages/conferences&#45;&gt;http://www.wnohang.net/pages/code -->
<g id="edge14" class="edge">
<title>http://www.wnohang.net/pages/conferences&#45;&gt;http://www.wnohang.net/pages/code</title>
<path fill="none" stroke="#000000" d="M2068.7019,-339.5693C1964.2633,-329.212 1832.4861,-316.1257 1832.1263,-316 1814.6419,-309.89 1797.1389,-299.179 1783.0677,-289.1451"/>
<polygon fill="#000000" stroke="#000000" points="1784.9059,-286.1518 1774.7807,-283.0322 1780.7505,-291.7851 1784.9059,-286.1518"/>
<text text-anchor="middle" x="1836.1263" y="-304.8" font-family="Times,serif" font-size="14.00" fill="#000000">1</text>
</g>
<!-- http://www.wnohang.net/pages/conferences&#45;&gt;http://www.wnohang.net/pages/contact -->
<g id="edge15" class="edge">
<title>http://www.wnohang.net/pages/conferences&#45;&gt;http://www.wnohang.net/pages/contact</title>
<path fill="none" stroke="#000000" d="M2080.105,-338.4506C2043.6453,-332.6519 2008.6987,-325.0988 1993.1263,-316 1958.7819,-295.9329 1969.7713,-268.2188 1936.1263,-247 1891.0854,-218.5942 1835.0302,-201.8763 1785.2262,-192.0398"/>
<polygon fill="#000000" stroke="#000000" points="1785.8317,-188.5923 1775.3539,-190.1628 1784.5242,-195.4691 1785.8317,-188.5923"/>
<text text-anchor="middle" x="1969.1263" y="-261.3" font-family="Times,serif" font-size="14.00" fill="#000000">2</text>
</g>
<!-- http://www.wnohang.net/pages/conferences&#45;&gt;http://www.wnohang.net/pages/consult -->
<g id="edge11" class="edge">
<title>http://www.wnohang.net/pages/conferences&#45;&gt;http://www.wnohang.net/pages/consult</title>
<path fill="none" stroke="#000000" d="M2109.3837,-336.2961C2094.5297,-331.2787 2079.7938,-324.6775 2067.1263,-316 2035.4463,-294.2987 2039.3683,-276.7807 2015.1263,-247 1976.9005,-200.0405 1929.8498,-147.5368 1902.0163,-116.9861"/>
<polygon fill="#000000" stroke="#000000" points="1904.3629,-114.3654 1895.0349,-109.3415 1899.194,-119.0859 1904.3629,-114.3654"/>
<text text-anchor="middle" x="2004.1263" y="-217.8" font-family="Times,serif" font-size="14.00" fill="#000000">1</text>
</g>
<!-- http://www.wnohang.net/pages/conferences&#45;&gt;http://www.wnohang.net/stylesheets/styles.css -->
<g id="edge16" class="edge">
<title>http://www.wnohang.net/pages/conferences&#45;&gt;http://www.wnohang.net/stylesheets/styles.css</title>
<path fill="none" stroke="#0000ff" stroke-dasharray="5,2" d="M2192.1052,-333.9336C2185.3941,-283.2625 2158.9623,-139.1887 2070.1263,-73 2047.9084,-56.4462 1908.1814,-40.6173 1794.5211,-30.227"/>
<polygon fill="#0000ff" stroke="#0000ff" points="1794.5802,-26.7181 1784.3051,-29.3012 1793.9483,-33.6895 1794.5802,-26.7181"/>
</g>
<!-- http://www.wnohang.net/pages/conferences&#45;&gt;http://www.wnohang.net/stylesheets/pygment_trac.css -->
<g id="edge17" class="edge">
<title>http://www.wnohang.net/pages/conferences&#45;&gt;http://www.wnohang.net/stylesheets/pygment_trac.css</title>
<path fill="none" stroke="#0000ff" stroke-dasharray="5,2" d="M2194.4593,-333.6701C2194.7502,-316.0641 2195.1263,-288.7151 2195.1263,-265 2195.1263,-265 2195.1263,-265 2195.1263,-91 2195.1263,-74.7272 2188.2333,-58.0807 2180.748,-44.8011"/>
<polygon fill="#0000ff" stroke="#0000ff" points="2183.7142,-42.9422 2175.5487,-36.1914 2177.7221,-46.5609 2183.7142,-42.9422"/>
</g>
<!-- http://www.wnohang.net/pages/code&#45;&gt;http://www.wnohang.net/pages/about -->
<g id="edge47" class="edge">
<title>http://www.wnohang.net/pages/code&#45;&gt;http://www.wnohang.net/pages/about</title>
<path fill="none" stroke="#000000" d="M1724.2629,-282.6853C1707.1522,-294.8485 1686.7853,-312.638 1676.1263,-334 1664.1923,-357.9173 1662.9482,-388.7322 1664.0796,-410.7828"/>
<polygon fill="#000000" stroke="#000000" points="1660.5936,-411.1064 1664.7894,-420.835 1667.5763,-410.6133 1660.5936,-411.1064"/>
<text text-anchor="middle" x="1680.1263" y="-348.3" font-family="Times,serif" font-size="14.00" fill="#000000">1</text>
</g>
<!-- http://www.wnohang.net/pages/code&#45;&gt;http://www.wnohang.net/pages/conferences -->
<g id="edge48" class="edge">
<title>http://www.wnohang.net/pages/code&#45;&gt;http://www.wnohang.net/pages/conferences</title>
<path fill="none" stroke="#000000" d="M1807.8122,-281.7563C1845.0964,-292.7048 1895.7474,-306.6536 1941.1263,-316 1982.2739,-324.4749 2027.5966,-331.6057 2068.376,-337.2272"/>
<polygon fill="#000000" stroke="#000000" points="2067.9848,-340.7062 2078.3655,-338.5869 2068.929,-333.7701 2067.9848,-340.7062"/>
<text text-anchor="middle" x="1945.1263" y="-304.8" font-family="Times,serif" font-size="14.00" fill="#000000">1</text>
</g>
<!-- http://www.wnohang.net/pages/code&#45;&gt;http://www.wnohang.net/pages/code -->
<g id="edge46" class="edge">
<title>http://www.wnohang.net/pages/code&#45;&gt;http://www.wnohang.net/pages/code</title>
<path fill="none" stroke="#000000" d="M1889.5031,-271.9017C1907.0626,-270.7049 1918.6632,-268.4043 1918.6632,-265 1918.6632,-262.3138 1911.4405,-260.3148 1899.7666,-259.003"/>
<polygon fill="#000000" stroke="#000000" points="1899.7719,-255.49 1889.5031,-258.0983 1899.1572,-262.463 1899.7719,-255.49"/>
<text text-anchor="middle" x="1922.6632" y="-261.3" font-family="Times,serif" font-size="14.00" fill="#000000">2</text>
</g>
<!-- http://www.wnohang.net/pages/code&#45;&gt;http://www.wnohang.net/pages/contact -->
<g id="edge49" class="edge">
<title>http://www.wnohang.net/pages/code&#45;&gt;http://www.wnohang.net/pages/contact</title>
<path fill="none" stroke="#000000" d="M1734.6298,-246.9092C1724.5146,-237.09 1711.7175,-224.7874 1700.1263,-214 1696.292,-210.4317 1692.2188,-206.6997 1688.1952,-203.0469"/>
<polygon fill="#000000" stroke="#000000" points="1690.3622,-200.2879 1680.5945,-196.1839 1685.6709,-205.4834 1690.3622,-200.2879"/>
<text text-anchor="middle" x="1719.1263" y="-217.8" font-family="Times,serif" font-size="14.00" fill="#000000">1</text>
</g>
<!-- http://www.wnohang.net/pages/code&#45;&gt;http://www.wnohang.net/pages/consult -->
<g id="edge45" class="edge">
<title>http://www.wnohang.net/pages/code&#45;&gt;http://www.wnohang.net/pages/consult</title>
<path fill="none" stroke="#000000" d="M1812.8307,-248.4829C1838.5695,-237.9862 1865.9724,-221.4345 1880.1263,-196 1895.1383,-169.0236 1892.2959,-157.5892 1888.1263,-127 1887.7611,-124.3207 1887.2496,-121.5593 1886.6493,-118.8137"/>
<polygon fill="#000000" stroke="#000000" points="1890.0399,-117.9453 1884.1877,-109.1134 1883.255,-119.6671 1890.0399,-117.9453"/>
<text text-anchor="middle" x="1896.1263" y="-174.3" font-family="Times,serif" font-size="14.00" fill="#000000">1</text>
</g>
<!-- http://www.wnohang.net/pages/code&#45;&gt;http://www.wnohang.net/stylesheets/styles.css -->
<g id="edge50" class="edge">
<title>http://www.wnohang.net/pages/code&#45;&gt;http://www.wnohang.net/stylesheets/styles.css</title>
<path fill="none" stroke="#0000ff" stroke-dasharray="5,2" d="M1655.7616,-251.4346C1591.2768,-240.2269 1515.0316,-221.9284 1495.1263,-196 1451.2206,-138.8091 1541.5362,-74.3588 1599.5134,-40.9106"/>
<polygon fill="#0000ff" stroke="#0000ff" points="1601.5373,-43.7868 1608.5153,-35.8144 1598.0887,-37.6952 1601.5373,-43.7868"/>
</g>
<!-- http://www.wnohang.net/pages/code&#45;&gt;http://www.wnohang.net/stylesheets/pygment_trac.css -->
<g id="edge51" class="edge">
<title>http://www.wnohang.net/pages/code&#45;&gt;http://www.wnohang.net/stylesheets/pygment_trac.css</title>
<path fill="none" stroke="#0000ff" stroke-dasharray="5,2" d="M1864.5371,-253.1337C1950.334,-243.8016 2055.029,-231.9059 2059.1263,-229 2121.2834,-184.9166 2147.5858,-92.7028 2157.2535,-46.1578"/>
<polygon fill="#0000ff" stroke="#0000ff" points="2160.7248,-46.6438 2159.2189,-36.1565 2153.8562,-45.2939 2160.7248,-46.6438"/>
</g>
<!-- http://www.wnohang.net/pages/contact&#45;&gt;http://www.wnohang.net/pages/about -->
<g id="edge34" class="edge">
<title>http://www.wnohang.net/pages/contact&#45;&gt;http://www.wnohang.net/pages/about</title>
<path fill="none" stroke="#000000" d="M1636.1484,-195.911C1621.5402,-208.4012 1604.183,-226.4666 1596.1263,-247 1590.2822,-261.8945 1593.3872,-267.2362 1596.1263,-283 1605.825,-338.8177 1611.8377,-353.3511 1639.1263,-403 1640.9498,-406.3176 1643.0688,-409.6518 1645.3094,-412.8805"/>
<polygon fill="#000000" stroke="#000000" points="1642.6359,-415.1512 1651.4048,-421.0973 1648.2579,-410.9806 1642.6359,-415.1512"/>
<text text-anchor="middle" x="1607.1263" y="-304.8" font-family="Times,serif" font-size="14.00" fill="#000000">1</text>
</g>
<!-- http://www.wnohang.net/pages/contact&#45;&gt;http://www.wnohang.net/pages/conferences -->
<g id="edge35" class="edge">
<title>http://www.wnohang.net/pages/contact&#45;&gt;http://www.wnohang.net/pages/conferences</title>
<path fill="none" stroke="#000000" d="M1779.7343,-189.5897C1818.8874,-195.0407 1862.2873,-202.8753 1901.1263,-214 1936.5273,-224.14 1948.2011,-224.2101 1977.1263,-247 2007.2891,-270.765 1996.7951,-295.2814 2029.1263,-316 2040.0163,-322.9786 2062.9985,-329.423 2088.4443,-334.8724"/>
<polygon fill="#000000" stroke="#000000" points="2087.7954,-338.3123 2098.2972,-336.9113 2089.214,-331.4575 2087.7954,-338.3123"/>
<text text-anchor="middle" x="2007.1263" y="-261.3" font-family="Times,serif" font-size="14.00" fill="#000000">1</text>
</g>
<!-- http://www.wnohang.net/pages/contact&#45;&gt;http://www.wnohang.net/pages/code -->
<g id="edge36" class="edge">
<title>http://www.wnohang.net/pages/contact&#45;&gt;http://www.wnohang.net/pages/code</title>
<path fill="none" stroke="#000000" d="M1668.674,-196.015C1674.2881,-206.5195 1682.3879,-219.523 1692.1263,-229 1696.9816,-233.725 1702.5723,-238.0836 1708.357,-242.0146"/>
<polygon fill="#000000" stroke="#000000" points="1706.5933,-245.0409 1716.908,-247.4611 1710.3539,-239.1368 1706.5933,-245.0409"/>
<text text-anchor="middle" x="1696.1263" y="-217.8" font-family="Times,serif" font-size="14.00" fill="#000000">1</text>
</g>
<!-- http://www.wnohang.net/pages/contact&#45;&gt;http://www.wnohang.net/pages/contact -->
<g id="edge33" class="edge">
<title>http://www.wnohang.net/pages/contact&#45;&gt;http://www.wnohang.net/pages/contact</title>
<path fill="none" stroke="#000000" d="M1804.4585,-184.8357C1822.3565,-183.6213 1834.1125,-181.3428 1834.1125,-178 1834.1125,-175.3362 1826.6473,-173.3482 1814.5578,-172.036"/>
<polygon fill="#000000" stroke="#000000" points="1814.7224,-168.5373 1804.4585,-171.1643 1814.1204,-175.5114 1814.7224,-168.5373"/>
<text text-anchor="middle" x="1838.1125" y="-174.3" font-family="Times,serif" font-size="14.00" fill="#000000">2</text>
</g>
<!-- http://www.wnohang.net/pages/contact&#45;&gt;http://www.wnohang.net/pages/consult -->
<g id="edge37" class="edge">
<title>http://www.wnohang.net/pages/contact&#45;&gt;http://www.wnohang.net/pages/consult</title>
<path fill="none" stroke="#000000" d="M1735.0035,-162.1652C1754.9357,-156.8419 1776.1826,-150.1389 1795.1263,-142 1812.2412,-134.6468 1829.9928,-124.1805 1844.6652,-114.641"/>
<polygon fill="#000000" stroke="#000000" points="1846.9777,-117.3067 1853.3697,-108.8572 1843.1037,-111.4764 1846.9777,-117.3067"/>
<text text-anchor="middle" x="1828.1263" y="-130.8" font-family="Times,serif" font-size="14.00" fill="#000000">1</text>
</g>
<!-- http://www.wnohang.net/pages/contact&#45;&gt;http://www.wnohang.net/stylesheets/styles.css -->
<g id="edge40" class="edge">
<title>http://www.wnohang.net/pages/contact&#45;&gt;http://www.wnohang.net/stylesheets/styles.css</title>
<path fill="none" stroke="#0000ff" stroke-dasharray="5,2" d="M1658.2092,-159.957C1655.2758,-132.3487 1649.6474,-79.3746 1646.1571,-46.5255"/>
<polygon fill="#0000ff" stroke="#0000ff" points="1649.5995,-45.7968 1645.0624,-36.2226 1642.6387,-46.5364 1649.5995,-45.7968"/>
</g>
<!-- http://www.wnohang.net/pages/contact&#45;&gt;http://www.wnohang.net/stylesheets/pygment_trac.css -->
<g id="edge39" class="edge">
<title>http://www.wnohang.net/pages/contact&#45;&gt;http://www.wnohang.net/stylesheets/pygment_trac.css</title>
<path fill="none" stroke="#0000ff" stroke-dasharray="5,2" d="M1666.6946,-159.8799C1676.8919,-132.7909 1696.9375,-83.7586 1712.1263,-73 1735.3146,-56.5751 1875.5472,-41.1786 1993.3896,-30.8772"/>
<polygon fill="#0000ff" stroke="#0000ff" points="1993.9724,-34.3399 2003.6328,-29.9895 1993.368,-27.366 1993.9724,-34.3399"/>
</g>
<!-- http://www.wnohang.net/pages/Yelp -->
<g id="node12" class="node">
<title>http://www.wnohang.net/pages/Yelp</title>
<g id="a_node12"><a xlink:href="http://www.wnohang.net/pages/Yelp" xlink:title="http://www.wnohang.net/pages/Yelp">
<ellipse fill="none" stroke="#000000" cx="944.1263" cy="-91" rx="146.774" ry="18"/>
<text text-anchor="middle" x="944.1263" y="-87.3" font-family="Times,serif" font-size="14.00" fill="#000000">http://www.wnohang.net/pages/Yelp</text>
</a>
</g>
</g>
<!-- http://www.wnohang.net/pages/contact&#45;&gt;http://www.wnohang.net/pages/Yelp -->
<g id="edge38" class="edge">
<title>http://www.wnohang.net/pages/contact&#45;&gt;http://www.wnohang.net/pages/Yelp</title>
<path fill="none" stroke="#000000" d="M1552.5465,-164.9282C1419.6258,-148.7772 1194.4316,-121.4142 1058.4681,-104.8935"/>
<polygon fill="#000000" stroke="#000000" points="1058.7803,-101.4058 1048.4311,-103.6739 1057.9359,-108.3547 1058.7803,-101.4058"/>
<text text-anchor="middle" x="1349.1263" y="-130.8" font-family="Times,serif" font-size="14.00" fill="#000000">1</text>
</g>
<!-- http://www.wnohang.net/pages/consult&#45;&gt;http://www.wnohang.net/pages/about -->
<g id="edge18" class="edge">
<title>http://www.wnohang.net/pages/consult&#45;&gt;http://www.wnohang.net/pages/about</title>
<path fill="none" stroke="#000000" d="M1734.1944,-98.138C1638.7601,-106.2346 1525.676,-123.4548 1495.1263,-160 1424.1692,-244.8828 1472.5132,-323.185 1549.1263,-403 1555.1086,-409.2323 1569.0374,-415.1115 1585.3107,-420.2413"/>
<polygon fill="#000000" stroke="#000000" points="1584.5373,-423.663 1595.1207,-423.172 1586.5411,-416.9559 1584.5373,-423.663"/>
<text text-anchor="middle" x="1471.1263" y="-261.3" font-family="Times,serif" font-size="14.00" fill="#000000">1</text>
</g>
<!-- http://www.wnohang.net/pages/consult&#45;&gt;http://www.wnohang.net/pages/conferences -->
<g id="edge19" class="edge">
<title>http://www.wnohang.net/pages/consult&#45;&gt;http://www.wnohang.net/pages/conferences</title>
<path fill="none" stroke="#000000" d="M1906.019,-108.7194C1914.5401,-114.3645 1923.8437,-120.7669 1932.1263,-127 2032.7214,-202.7027 2044.8889,-237.2619 2143.1263,-316 2148.1765,-320.0478 2153.6459,-324.1661 2159.064,-328.1018"/>
<polygon fill="#000000" stroke="#000000" points="2157.2954,-331.1396 2167.4683,-334.0997 2161.3618,-325.4417 2157.2954,-331.1396"/>
<text text-anchor="middle" x="2051.1263" y="-217.8" font-family="Times,serif" font-size="14.00" fill="#000000">1</text>
</g>
<!-- http://www.wnohang.net/pages/consult&#45;&gt;http://www.wnohang.net/pages/code -->
<g id="edge20" class="edge">
<title>http://www.wnohang.net/pages/consult&#45;&gt;http://www.wnohang.net/pages/code</title>
<path fill="none" stroke="#000000" d="M1877.2233,-109.2816C1875.3211,-131.5652 1869.4196,-169.5181 1851.1263,-196 1837.8539,-215.2136 1817.3845,-230.8418 1798.579,-242.3357"/>
<polygon fill="#000000" stroke="#000000" points="1796.6589,-239.4043 1789.8047,-247.4833 1800.201,-245.442 1796.6589,-239.4043"/>
<text text-anchor="middle" x="1872.1263" y="-174.3" font-family="Times,serif" font-size="14.00" fill="#000000">1</text>
</g>
<!-- http://www.wnohang.net/pages/consult&#45;&gt;http://www.wnohang.net/pages/contact -->
<g id="edge21" class="edge">
<title>http://www.wnohang.net/pages/consult&#45;&gt;http://www.wnohang.net/pages/contact</title>
<path fill="none" stroke="#000000" d="M1834.5051,-108.4085C1799.5465,-122.3598 1750.3578,-141.9902 1713.1313,-156.8466"/>
<polygon fill="#000000" stroke="#000000" points="1711.4471,-153.7503 1703.4567,-160.7076 1714.0418,-160.2517 1711.4471,-153.7503"/>
<text text-anchor="middle" x="1787.1263" y="-130.8" font-family="Times,serif" font-size="14.00" fill="#000000">1</text>
</g>
<!-- http://www.wnohang.net/pages/consult&#45;&gt;http://www.wnohang.net/pages/consult -->
<g id="edge22" class="edge">
<title>http://www.wnohang.net/pages/consult&#45;&gt;http://www.wnohang.net/pages/consult</title>
<path fill="none" stroke="#000000" d="M2027.1755,-96.5927C2042.7696,-95.501 2052.7624,-93.6367 2052.7624,-91 2052.7624,-88.9813 2046.9048,-87.4153 2037.1605,-86.3022"/>
<polygon fill="#000000" stroke="#000000" points="2037.448,-82.814 2027.1755,-85.4073 2036.8231,-89.7861 2037.448,-82.814"/>
<text text-anchor="middle" x="2056.7624" y="-87.3" font-family="Times,serif" font-size="14.00" fill="#000000">2</text>
</g>
<!-- http://www.wnohang.net/pages/consult&#45;&gt;http://www.wnohang.net/stylesheets/styles.css -->
<g id="edge23" class="edge">
<title>http://www.wnohang.net/pages/consult&#45;&gt;http://www.wnohang.net/stylesheets/styles.css</title>
<path fill="none" stroke="#0000ff" stroke-dasharray="5,2" d="M1823.6219,-74.0688C1789.2915,-63.4045 1744.7748,-49.5759 1708.5421,-38.3206"/>
<polygon fill="#0000ff" stroke="#0000ff" points="1709.1458,-34.8433 1698.5576,-35.2191 1707.0691,-41.5282 1709.1458,-34.8433"/>
</g>
<!-- http://www.wnohang.net/pages/consult&#45;&gt;http://www.wnohang.net/stylesheets/pygment_trac.css -->
<g id="edge24" class="edge">
<title>http://www.wnohang.net/pages/consult&#45;&gt;http://www.wnohang.net/stylesheets/pygment_trac.css</title>
<path fill="none" stroke="#0000ff" stroke-dasharray="5,2" d="M1942.2156,-74.5264C1984.6504,-63.6188 2040.5299,-49.2554 2085.3408,-37.7371"/>
<polygon fill="#0000ff" stroke="#0000ff" points="2086.4937,-41.0546 2095.3075,-35.1753 2084.751,-34.275 2086.4937,-41.0546"/>
</g>
<!-- http://www.wnohang.net/pages/Yelp&#45;&gt;http://www.wnohang.net/pages/Yelp -->
<g id="edge41" class="edge">
<title>http://www.wnohang.net/pages/Yelp&#45;&gt;http://www.wnohang.net/pages/Yelp</title>
<path fill="none" stroke="#000000" d="M1083.6656,-96.6784C1099.0685,-95.5998 1109.0133,-93.707 1109.0133,-91 1109.0133,-88.9486 1103.3022,-87.3647 1093.8326,-86.2485"/>
<polygon fill="#000000" stroke="#000000" points="1093.9422,-82.7441 1083.6656,-85.3216 1093.3065,-89.7152 1093.9422,-82.7441"/>
<text text-anchor="middle" x="1113.0133" y="-87.3" font-family="Times,serif" font-size="14.00" fill="#000000">1</text>
</g>
<!-- http://www.wnohang.net/cdn&#45;cgi/se/javascripts/modernizr.js -->
<g id="node13" class="node">
<title>http://www.wnohang.net/cdn&#45;cgi/se/javascripts/modernizr.js</title>
<g id="a_node13"><a xlink:href="modernizr.js" xlink:title="http://www.wnohang.net/cdn&#45;cgi/se/javascripts/modernizr.js">
<ellipse fill="none" stroke="#000000" stroke-dasharray="5,2" cx="785.1263" cy="-18" rx="233.1587" ry="18"/>
<text text-anchor="middle" x="785.1263" y="-14.3" font-family="Times,serif" font-size="14.00" fill="#000000">http://www.wnohang.net/cdn&#45;cgi/se/javascripts/modernizr.js</text>
</a>
</g>
</g>
<!-- http://www.wnohang.net/pages/Yelp&#45;&gt;http://www.wnohang.net/cdn&#45;cgi/se/javascripts/modernizr.js -->
<g id="edge42" class="edge">
<title>http://www.wnohang.net/pages/Yelp&#45;&gt;http://www.wnohang.net/cdn&#45;cgi/se/javascripts/modernizr.js</title>
<path fill="none" stroke="#0000ff" stroke-dasharray="5,2" d="M906.0418,-73.5147C884.2401,-63.5051 856.6729,-50.8485 833.3682,-40.1488"/>
<polygon fill="#0000ff" stroke="#0000ff" points="834.5529,-36.8415 824.0046,-35.8498 831.6322,-43.2031 834.5529,-36.8415"/>
</g>
<!-- http://www.wnohang.net/cdn&#45;cgi/se/themes/core.css -->
<g id="node14" class="node">
<title>http://www.wnohang.net/cdn&#45;cgi/se/themes/core.css</title>
<g id="a_node14"><a xlink:href="core.css" xlink:title="http://www.wnohang.net/cdn&#45;cgi/se/themes/core.css">
<ellipse fill="none" stroke="#000000" stroke-dasharray="5,2" cx="1240.1263" cy="-18" rx="203.3639" ry="18"/>
<text text-anchor="middle" x="1240.1263" y="-14.3" font-family="Times,serif" font-size="14.00" fill="#000000">http://www.wnohang.net/cdn&#45;cgi/se/themes/core.css</text>
</a>
</g>
</g>
<!-- http://www.wnohang.net/pages/Yelp&#45;&gt;http://www.wnohang.net/cdn&#45;cgi/se/themes/core.css -->
<g id="edge43" class="edge">
<title>http://www.wnohang.net/pages/Yelp&#45;&gt;http://www.wnohang.net/cdn&#45;cgi/se/themes/core.css</title>
<path fill="none" stroke="#0000ff" stroke-dasharray="5,2" d="M1009.8183,-74.7989C1054.5796,-63.7598 1114.0689,-49.0885 1161.3734,-37.4222"/>
<polygon fill="#0000ff" stroke="#0000ff" points="1162.402,-40.7734 1171.273,-34.9807 1160.7258,-33.9771 1162.402,-40.7734"/>
</g>
<!-- http://www.wnohang.net/cdn&#45;cgi/se/themes/mountain&#45;view/styles.css -->
<g id="node15" class="node">
<title>http://www.wnohang.net/cdn&#45;cgi/se/themes/mountain&#45;view/styles.css</title>
<g id="a_node15"><a xlink:href="styles.css" xlink:title="http://www.wnohang.net/cdn&#45;cgi/se/themes/mountain&#45;view/styles.css">
<ellipse fill="none" stroke="#000000" stroke-dasharray="5,2" cx="267.1263" cy="-18" rx="267.2527" ry="18"/>
<text text-anchor="middle" x="267.1263" y="-14.3" font-family="Times,serif" font-size="14.00" fill="#000000">http://www.wnohang.net/cdn&#45;cgi/se/themes/mountain&#45;view/styles.css</text>
</a>
</g>
</g>
<!-- http://www.wnohang.net/pages/Yelp&#45;&gt;http://www.wnohang.net/cdn&#45;cgi/se/themes/mountain&#45;view/styles.css -->
<g id="edge44" class="edge">
<title>http://www.wnohang.net/pages/Yelp&#45;&gt;http://www.wnohang.net/cdn&#45;cgi/se/themes/mountain&#45;view/styles.css</title>
<path fill="none" stroke="#0000ff" stroke-dasharray="5,2" d="M833.8478,-79.1088C721.0333,-66.9442 544.9137,-47.9534 418.961,-34.3721"/>
<polygon fill="#0000ff" stroke="#0000ff" points="419.1583,-30.8732 408.8407,-33.2809 418.4078,-37.8329 419.1583,-30.8732"/>
</g>
</g>
</svg>
